<svg id="Layer_1" data-name="Layer 1" xmlns="http://www.w3.org/2000/svg" viewBox="0 0 190 70"><defs><style>.cls-1{fill:#fff;}</style></defs><title>Logo full on dashboard copy</title><polygon class="cls-1" points="43.36 26.43 17.88 26.43 23.85 14.57 51.19 14.57 43.36 26.43"/><polygon class="cls-1" points="35.13 41.86 20.34 41.86 8.93 50.49 14.68 41.86 11.32 41.86 13.74 30 42 30 35.13 41.86"/><polygon class="cls-1" points="38.94 56.78 6.39 56.78 21.75 44.91 41.3 44.91 38.94 56.78"/><path class="cls-1" d="M136.35,25.23a8.83,8.83,0,1,0,6.22,15.1v2.34a6.22,6.22,0,0,1-12.44-.08v-.36h-2.61v.36a8.83,8.83,0,0,0,17.65.44h0v-.44h0V34A8.85,8.85,0,0,0,136.35,25.23Zm6.22,8.83a6.22,6.22,0,1,1-6.22-6.22A6.23,6.23,0,0,1,142.57,34.07Z"/><path class="cls-1" d="M60.83,25.23A8.83,8.83,0,1,0,69.17,37l.17-.48H66.56l-.1.21a6.22,6.22,0,0,1-11.72-1.38H69.58l0-.32a9,9,0,0,0,.05-.94,9.11,9.11,0,0,0-.06-1A8.83,8.83,0,0,0,60.83,25.23Zm-6.07,7.48a6.22,6.22,0,0,1,12.15,0Z"/><path class="cls-1" d="M155.23,25.23A8.83,8.83,0,1,0,163.57,37l.17-.48H161l-.1.21a6.22,6.22,0,0,1-11.72-1.38H164l0-.32a8.74,8.74,0,0,0,.05-.94,8.64,8.64,0,0,0-.06-1A8.83,8.83,0,0,0,155.23,25.23Zm-6.07,7.48a6.22,6.22,0,0,1,12.14,0Z"/><path class="cls-1" d="M88.54,33.53h0a8.82,8.82,0,0,0-17.61,0h0v.54h0V42.9h2.61V34.07a6.22,6.22,0,1,1,12.44,0V42.9h2.61V34.07h0Z"/><path class="cls-1" d="M107.42,33.53h0a8.82,8.82,0,1,0-2.58,6.81v2.2a6.22,6.22,0,0,1-12.44-.07V42.1H89.76v.36a8.83,8.83,0,0,0,17.65.44h0v-.44h0V33.53Zm-2.61.54a6.22,6.22,0,1,1-6.22-6.22A6.23,6.23,0,0,1,104.81,34.07Z"/><path class="cls-1" d="M126.28,33.53a8.82,8.82,0,1,0-2.58,6.81V42.9h2.61V33.53Zm-8.81,6.76a6.22,6.22,0,1,1,6.22-6.22A6.23,6.23,0,0,1,117.47,40.29Z"/><path class="cls-1" d="M179.11,25.23a8.83,8.83,0,1,0,8.83,8.83A8.84,8.84,0,0,0,179.11,25.23Zm6.22,8.83a6.22,6.22,0,1,1-6.22-6.22A6.23,6.23,0,0,1,185.33,34.07Z"/><polygon class="cls-1" points="170.43 25.13 168.91 25.13 168.91 19.92 166.29 19.92 166.29 25.13 164.77 25.13 164.77 27.75 166.29 27.75 166.29 42.9 168.91 42.9 168.91 27.75 170.43 27.75 170.43 25.13"/></svg>