<svg id="Layer_1" data-name="Layer 1" xmlns="http://www.w3.org/2000/svg" viewBox="0 0 190 70"><defs><style>.cls-1{fill:#196ae5;}</style></defs><title>Logo full on dashboard</title><polygon class="cls-1" points="41.87 28 16.12 28 22.16 16.01 49.78 16.01 41.87 28"/><polygon class="cls-1" points="33.56 43.59 18.62 43.59 7.08 52.31 12.89 43.59 9.49 43.59 11.95 31.6 40.5 31.6 33.56 43.59"/><polygon class="cls-1" points="37.41 58.66 4.52 58.66 20.04 46.67 39.79 46.67 37.41 58.66"/><path class="cls-1" d="M135.83,26.79A8.93,8.93,0,1,0,142.11,42V44.4a6.29,6.29,0,0,1-12.57-.08V44H126.9v.36a8.92,8.92,0,0,0,17.83.44h0v-.44h0V35.66A9,9,0,0,0,135.83,26.79Zm6.29,8.93a6.29,6.29,0,1,1-6.29-6.29A6.29,6.29,0,0,1,142.11,35.71Z"/><path class="cls-1" d="M59.52,26.79a8.93,8.93,0,1,0,8.42,11.87l.17-.48H65.31l-.1.21A6.28,6.28,0,0,1,53.37,37h15l0-.32a8.87,8.87,0,0,0,.05-.95,9.12,9.12,0,0,0-.06-1.05A8.92,8.92,0,0,0,59.52,26.79Zm-6.14,7.55a6.29,6.29,0,0,1,12.27,0Z"/><path class="cls-1" d="M154.9,26.79a8.93,8.93,0,1,0,8.42,11.87l.17-.48h-2.81l-.1.21A6.28,6.28,0,0,1,148.75,37h15l0-.32a8.41,8.41,0,0,0,.05-.95,8.94,8.94,0,0,0-8.93-8.93Zm-6.14,7.55a6.29,6.29,0,0,1,12.27,0Z"/><path class="cls-1" d="M87.52,35.17h0a8.91,8.91,0,0,0-17.79,0h0v.55h0v8.93h2.64V35.71a6.29,6.29,0,0,1,12.57,0v8.93h2.64V35.71h0Z"/><path class="cls-1" d="M106.6,35.17h0A8.91,8.91,0,1,0,104,42v2.23a6.29,6.29,0,0,1-12.57-.08v-.36H88.75v.36a8.92,8.92,0,0,0,17.83.44h0v-.44h0v-9Zm-2.64.55a6.29,6.29,0,1,1-6.29-6.29A6.29,6.29,0,0,1,104,35.71Z"/><path class="cls-1" d="M125.65,35.17A8.92,8.92,0,1,0,123,42v2.59h2.64V35.17Zm-2.61.55a6.29,6.29,0,1,1-6.29-6.29A6.29,6.29,0,0,1,123,35.71Z"/><path class="cls-1" d="M179,26.78A8.93,8.93,0,1,0,188,35.71,8.94,8.94,0,0,0,179,26.78Zm6.29,8.93A6.29,6.29,0,1,1,179,29.43,6.29,6.29,0,0,1,185.32,35.71Z"/><polygon class="cls-1" points="170.26 26.68 168.72 26.68 168.72 21.42 166.08 21.42 166.08 26.68 164.54 26.68 164.54 29.32 166.08 29.32 166.08 44.64 168.72 44.64 168.72 29.32 170.26 29.32 170.26 26.68"/></svg>