<svg xmlns="http://www.w3.org/2000/svg" viewBox="0 0 200.49 372"><defs><style>.cls-1{fill:#3e464e;}.cls-2{fill:#fafaf9;}.cls-3{fill:#606971;}.cls-4{fill:#afd8f0;opacity:0.58;}.cls-5{fill:#b2d5a2;}.cls-5,.cls-6{opacity:0.63;}.cls-6{fill:#f4b0b3;}.cls-7{fill:#e9e9e9;}</style></defs><title>ph</title><g id="Ebene_1" data-name="Ebene 1"><path class="cls-1" d="M170,0H30.48C13.68,0,0,12,0,26.71V345.3C0,360,13.68,372,30.48,372H170c16.8,0,30.46-12,30.46-26.7V26.71C200.5,12,186.84,0,170,0Z" transform="translate(-0.02)"/><rect class="cls-2" x="9.38" y="35" width="181.65" height="298"/><path class="cls-3" d="M112.94,14.37H86.41a4,4,0,0,0-4.27,3.7,4,4,0,0,0,4.27,3.71h26.53a4,4,0,0,0,4.27-3.71A4,4,0,0,0,112.94,14.37Z" transform="translate(-0.02)"/><path class="cls-3" d="M116.61,347.58H82.73a5.46,5.46,0,0,0,0,10.92h33.88a5.46,5.46,0,0,0,0-10.92Z" transform="translate(-0.02)"/></g><g id="Layer_2" data-name="Layer 2"><rect class="cls-4" x="24.49" y="48" width="77" height="77" rx="15.25" ry="15.25"/><rect class="cls-5" x="145.49" y="282.75" width="30.5" height="30.5" rx="6" ry="6"/><rect class="cls-6" x="24.49" y="195" width="151.5" height="77" rx="15.25" ry="15.25"/><rect class="cls-7" x="110.62" y="48.88" width="65.13" height="7.5" rx="3.19" ry="3.19"/><rect class="cls-7" x="110.62" y="61.13" width="65.13" height="7.5" rx="3.19" ry="3.19"/><rect class="cls-7" x="110.62" y="73.38" width="65.13" height="7.5" rx="3.19" ry="3.19"/><rect class="cls-7" x="110.62" y="85.63" width="65.13" height="7.5" rx="3.19" ry="3.19"/><rect class="cls-7" x="110.62" y="97.88" width="65.13" height="7.5" rx="3.19" ry="3.19"/><rect class="cls-7" x="110.62" y="110.13" width="34.04" height="7.5" rx="3.19" ry="3.19"/><rect class="cls-7" x="24.87" y="131.38" width="34.04" height="7.5" rx="3.19" ry="3.19"/><rect class="cls-7" x="24.95" y="153.38" width="150.79" height="7.5" rx="3.19" ry="3.19"/><rect class="cls-7" x="24.95" y="166.54" width="150.79" height="7.5" rx="3.19" ry="3.19"/><rect class="cls-7" x="24.95" y="282.92" width="115.17" height="7.5" rx="3.19" ry="3.19"/><rect class="cls-7" x="24.95" y="294.79" width="115.17" height="7.5" rx="3.19" ry="3.19"/><rect class="cls-7" x="24.95" y="306.67" width="115.17" height="7.5" rx="3.19" ry="3.19"/><rect class="cls-7" x="24.95" y="179.71" width="73.21" height="7.5" rx="3.19" ry="3.19"/></g></svg>