<svg xmlns="http://www.w3.org/2000/svg" viewBox="0 0 224.67 131"><defs><style>.cls-1{fill:#eaeaea;}.cls-2{fill:#fff;}.cls-3{fill:#4c9dff;}</style></defs><title>WEB FLAT TEMPLATE</title><g id="small"><rect class="cls-1" width="224.67" height="20.08"/><rect class="cls-2" x="2.75" y="3.67" width="182" height="11.5" rx="5.75" ry="5.75"/><rect class="cls-1" x="2.75" y="24.92" width="219.5" height="15.67" rx="5.75" ry="5.75"/><rect class="cls-1" x="2.75" y="85.67" width="143.75" height="6.42" rx="3.21" ry="3.21"/><rect class="cls-1" x="2.75" y="95.67" width="143.75" height="6.42" rx="3.21" ry="3.21"/><rect class="cls-1" x="2.75" y="105.67" width="143.75" height="6.42" rx="3.21" ry="3.21"/><rect class="cls-1" x="2.75" y="115.67" width="107.25" height="6.42" rx="3.21" ry="3.21"/><rect class="cls-1" x="2.75" y="46.42" width="74" height="31.92" rx="5.75" ry="5.75"/><rect class="cls-1" x="151.75" y="85.42" width="69.25" height="36.92" rx="5.75" ry="5.75"/><rect class="cls-1" x="82.04" y="46.42" width="139.71" height="31.92" rx="5.75" ry="5.75"/><circle class="cls-2" cx="197.58" cy="9.42" r="3.75"/><circle class="cls-2" cx="211.58" cy="9.42" r="3.75"/><rect class="cls-3" x="64.75" y="20.17" width="92.5" height="30.67"/></g></svg>