<svg id="Layer_1" data-name="Layer 1" xmlns="http://www.w3.org/2000/svg" viewBox="0 0 128 128"><defs><style>.cls-1{fill:#196ae5;}</style></defs><title>Artboard 46 copy 2</title><path class="cls-1" d="M126.39,34.66c-1.21,4.41-4,7.73-7.21,10.86-6.17,6-12.12,12.17-18.26,18.17a15.05,15.05,0,0,1-19.65,1.59c-1.38-1-1.7-1.82-.21-3a12.63,12.63,0,0,0,2.2-2.2c1-1.27,1.81-1.33,3.25-.46a6.85,6.85,0,0,0,8.83-1Q106.13,48,116.75,37.2a7,7,0,0,0,0-10.38q-7.89-8.12-16-16a7.11,7.11,0,0,0-10.41,0Q79.47,21.34,68.89,32.18A7,7,0,0,0,67.84,41c.92,1.48.61,2.19-.48,3.28-4,4-5.08,3.9-7-1.59s-1.37-11,2.79-15.3Q74.11,16,85.55,5a14.33,14.33,0,0,1,19.8-.06c6,5.61,11.68,11.54,17.46,17.37,2,2,2.66,4.7,3.58,7.25Z"/><path class="cls-1" d="M1.11,95.44A13.7,13.7,0,0,1,5.23,85.25C12.42,78,19.58,70.78,26.86,63.65A14.94,14.94,0,0,1,46.29,62.5c1.27,1,1.51,1.71.13,2.71a6,6,0,0,0-1.2,1.19c-1.44,1.88-2.78,2.72-5.3,1.2S34.31,66.8,32.11,69C24.84,76.1,17.62,83.28,10.51,90.58a7.11,7.11,0,0,0,0,10.22q8,8.24,16.21,16.2A7.12,7.12,0,0,0,37,117q10.92-10.69,21.61-21.61a6.83,6.83,0,0,0,.87-8.85c-.88-1.38-.73-2.13.41-3a8.66,8.66,0,0,0,.81-.79c3.42-3.42,3.82-3.34,5.94,1.21a14.65,14.65,0,0,1-2.74,16.77c-7.1,7.31-14.28,14.54-21.61,21.61-6.12,5.9-15,5.65-21.09-.35-5.24-5.16-10.42-10.39-15.62-15.6A14.13,14.13,0,0,1,1.11,95.44Z"/><path class="cls-1" d="M83.33,47.46A4.43,4.43,0,0,1,81.81,51q-15.5,15.49-31,31c-1.9,1.89-4.27,2-5.71.3-1.58-1.89-1.35-3.82.37-5.54l31.18-31.2a3.79,3.79,0,0,1,4.37-1A3.64,3.64,0,0,1,83.33,47.46Z"/></svg>