<svg id="Layer_1" data-name="Layer 1" xmlns="http://www.w3.org/2000/svg" viewBox="0 0 128 128"><defs><style>.cls-1{fill:#196ae5;}</style></defs><title>Artboard 41 copy 2</title><path class="cls-1" d="M123.59,62.74a7.45,7.45,0,0,1-7.29-7.49A7.4,7.4,0,0,1,118.4,50a7.6,7.6,0,0,1,5.18-2.3,2,2,0,0,0,.48,0,2.79,2.79,0,0,0,2.18-3.29,57.44,57.44,0,0,0-3.05-10.11,58.36,58.36,0,0,0-5-9.32,2.18,2.18,0,0,0-.32-.36,2.75,2.75,0,0,0-3.92-.12,7.48,7.48,0,0,1-5.28,2.06,7.4,7.4,0,0,1-5.2-2.18,7.74,7.74,0,0,1-2.22-5.23,7.63,7.63,0,0,1,2-5.18,1.76,1.76,0,0,0,.35-.44,2.77,2.77,0,0,0-.79-3.89,53.23,53.23,0,0,0-9.31-5,55.36,55.36,0,0,0-10-3.05A2.39,2.39,0,0,0,83,1.52,2.79,2.79,0,0,0,80.1,4.25a7.41,7.41,0,0,1-2.27,5.16,7.54,7.54,0,0,1-5.23,2.14,7.49,7.49,0,0,1-5.23-2.14,7.4,7.4,0,0,1-2.25-5.16c0-.16,0-.32-.09-.48a2.73,2.73,0,0,0-3.24-2.17A52.58,52.58,0,0,0,51.67,4.66a51.49,51.49,0,0,0-9.32,5,3.81,3.81,0,0,0-.4.32,2.85,2.85,0,0,0-.12,4,7.24,7.24,0,0,1,2.06,5.23,7.44,7.44,0,0,1-7.37,7.42,7.32,7.32,0,0,1-5.23-2,4.53,4.53,0,0,0-.44-.35A2.81,2.81,0,0,0,27,25a55,55,0,0,0-5,9.32A56.23,56.23,0,0,0,19,44.3a2.35,2.35,0,0,0-.08.6,2.76,2.76,0,0,0,2.73,2.82,7.52,7.52,0,0,1,0,15c-.16,0-.32,0-.47,0A2.79,2.79,0,0,0,19,66.07a51.68,51.68,0,0,0,3,10c0,.07,0,.11,0,.16.44,1.07.93,2.1,1.43,3.13l4.37-3.85c-.22-.47-.44-.93-.65-1.42,0,0,0-.08,0-.16a47,47,0,0,1-2.06-6.08,13.38,13.38,0,0,0,5.72-3.44,13.09,13.09,0,0,0,0-18.29,13,13,0,0,0-5.72-3.42,48.46,48.46,0,0,1,2.11-6.22,50.83,50.83,0,0,1,2.93-6,12.87,12.87,0,0,0,6.46,1.63A13.08,13.08,0,0,0,47.86,12.74,52.8,52.8,0,0,1,53.81,9.8,49,49,0,0,1,60,7.7a12.78,12.78,0,0,0,3.44,5.71,12.93,12.93,0,0,0,9.12,3.73,13,13,0,0,0,9.12-3.73A13.12,13.12,0,0,0,85.17,7.7,51.89,51.89,0,0,1,91.4,9.8a44,44,0,0,1,5.9,2.94,13.52,13.52,0,0,0-1.59,6.47,13.08,13.08,0,0,0,12.89,12.93,12.82,12.82,0,0,0,6.47-1.63,53.92,53.92,0,0,1,3,5.92,50.77,50.77,0,0,1,2.11,6.25,13.32,13.32,0,0,0-5.76,3.42,13.19,13.19,0,0,0,0,18.29,13.36,13.36,0,0,0,5.76,3.44A49.58,49.58,0,0,1,118,74a50.85,50.85,0,0,1-3,5.9,12.75,12.75,0,0,0-6.47-1.59A13,13,0,0,0,95.71,91.26a13.39,13.39,0,0,0,1.59,6.46,42.19,42.19,0,0,1-5.9,2.93,59.76,59.76,0,0,1-6.22,2.15A13.12,13.12,0,0,0,72.6,93.32,13,13,0,0,0,63.48,97,12.79,12.79,0,0,0,60,102.8a55.93,55.93,0,0,1-6.23-2.15c-.56-.23-1.1-.49-1.65-.74l.37.32-3.75,4.26c.95.46,1.9.91,2.88,1.31a52.23,52.23,0,0,0,10,3.06,3.75,3.75,0,0,0,.6.07,2.78,2.78,0,0,0,2.85-2.69,7.5,7.5,0,0,1,15,0,1.59,1.59,0,0,0,.09.47,2.76,2.76,0,0,0,3.24,2.18,55.36,55.36,0,0,0,19.43-8,1.71,1.71,0,0,0,.4-.32,2.76,2.76,0,0,0,.07-3.93,7.47,7.47,0,0,1,.16-10.47,7.45,7.45,0,0,1,5.2-2.22,7.72,7.72,0,0,1,5.23,2,4.48,4.48,0,0,0,.44.35,2.74,2.74,0,0,0,3.84-.79,55.81,55.81,0,0,0,5-9.32,55,55,0,0,0,3.05-10,3.44,3.44,0,0,0,0-.6A2.76,2.76,0,0,0,123.59,62.74Z"/><path class="cls-1" d="M48.53,98.08l.68-.77L66,78.26a21,21,0,0,0,6.63,1h.08A23.85,23.85,0,0,0,95.44,48.59c-.26-.87-.87-2.9-2.94-3.42a3.43,3.43,0,0,0-1.47,0,5.35,5.35,0,0,0-2.71,1.65l-4.51,4.51-6.27,6.26q-3.52-3.49-7-7l4.86-4.86,6.06-6.06A5.09,5.09,0,0,0,83,37a3.38,3.38,0,0,0-.05-1.39,4.26,4.26,0,0,0-3.14-2.85,23.85,23.85,0,0,0-7-1.1h-.06a23.55,23.55,0,0,0-19.1,9.58,23.81,23.81,0,0,0-3.76,20.85C43.4,67.64,37.25,73,31.26,78.27l0,0-1.41,1.24-4.22,3.71,0,0,0,0c-6.79,6-13.36,11.82-19.77,17.57A14.5,14.5,0,0,0,.72,111.4a15.3,15.3,0,0,0,9.6,14.82,15.7,15.7,0,0,0,6,1.24,14.42,14.42,0,0,0,10.86-5.14c2-2.24,4-4.5,6-6.75l5.69-6.46,5.42-6.16.51-.58,3.77-4.28h0Zm-14.19,7.07-5.69,6.46q-3,3.37-5.94,6.71a8.39,8.39,0,0,1-10.12,2.36,9.37,9.37,0,0,1-5.9-9.07,8.52,8.52,0,0,1,3.11-6.34c7.41-6.64,15-13.41,23-20.39l6.92-6.07c4.69-4.1,9.48-8.27,14.43-12.57.14-.13.23-.27.36-.4a4.75,4.75,0,0,0,1.2-5.09,17.83,17.83,0,0,1,2.71-16,17.63,17.63,0,0,1,14.3-7.17,16.69,16.69,0,0,1,2.17.14l-3.69,3.69-4.92,4.92c-2.83,2.84-2.85,5.47,0,8.29q3.71,3.73,7.45,7.44c2.53,2.51,5.3,2.5,7.81,0L88,55.5l2.29-2.29A17.89,17.89,0,0,1,72.67,73.26h-.06a14.47,14.47,0,0,1-5.23-.84,4.53,4.53,0,0,0-5.18,1.09c-.12.12-.24.23-.36.37Q55.48,81.13,49.1,88.37L41.55,97Z"/></svg>