<svg id="Layer_1" data-name="Layer 1" xmlns="http://www.w3.org/2000/svg" viewBox="0 0 128 128"><defs><style>.cls-1{fill:none;}.cls-2{fill:#196ae5;}</style></defs><title>Artboard 41 copy</title><path class="cls-1" d="M40.24,38.57l0,.35A4.28,4.28,0,0,0,41.39,42a6.11,6.11,0,0,0,4.09,2.15,5.56,5.56,0,0,0,4.06-1.54,5.82,5.82,0,0,0,1.88-3.93,6,6,0,0,0-5.49-6h-.16a5.84,5.84,0,0,0-4.16,1.85,4.81,4.81,0,0,0-1.4,3.67Z"/><path class="cls-1" d="M80.12,44.07h.24l.24,0a4.69,4.69,0,0,0,3.57-1.31,6.11,6.11,0,0,0,1.91-4.35,5.69,5.69,0,1,0-11.39,0,6,6,0,0,0,1.86,4.33A4.8,4.8,0,0,0,80.12,44.07Z"/><path class="cls-1" d="M43.49,67.74H39c-3.36,0-6.72,0-10.08,0,0,.49.05,1,.11,1.48A33.2,33.2,0,0,0,34.5,83.7,34.37,34.37,0,0,0,46,94.66a32.22,32.22,0,0,0,13.52,4.48,36.72,36.72,0,0,0,9.63-.21,33.89,33.89,0,0,0,10-3.26A35,35,0,0,0,95.87,77,34,34,0,0,0,98,67.73q-13,0-26,0Z"/><path class="cls-1" d="M71.29,29a13.06,13.06,0,0,1,22.12,9.32,13.47,13.47,0,0,1-4.22,9.75,12,12,0,0,1-8.24,3.31l-.62,0a12.08,12.08,0,0,1-8.77-3.27,13.36,13.36,0,0,1-4.18-9.62A13.1,13.1,0,0,1,71.29,29Zm-35,.47a13,13,0,0,1,9.88-4.14A13.25,13.25,0,0,1,58.75,38.9,13.1,13.1,0,0,1,54.55,48a12.9,12.9,0,0,1-8.87,3.53h-.46a13.37,13.37,0,0,1-9.37-4.66,11.44,11.44,0,0,1-3-8.3A12.17,12.17,0,0,1,36.29,29.51Zm69.22,36.4h0a42,42,0,0,1-2.81,13.8,42.32,42.32,0,0,1-20.13,22.45,41.05,41.05,0,0,1-12.18,4,37.27,37.27,0,0,1-6.49.53c-1.57,0-3.24-.08-5-.24A39.47,39.47,0,0,1,42.26,101,41.64,41.64,0,0,1,28.37,87.71a40.9,40.9,0,0,1-6.56-17.63c-.1-.86-.15-1.71-.18-2.57,0-.55,0-1.1-.1-1.65a5,5,0,0,1,1.17-4,5.15,5.15,0,0,1,3.94-1.5c4.14.05,8.27,0,12.41,0h33q14.05,0,28.11,0a5.16,5.16,0,0,1,4,1.38A5.4,5.4,0,0,1,105.51,65.91Z"/><path class="cls-2" d="M80.32,51.4l.62,0a12,12,0,0,0,8.24-3.31,13.47,13.47,0,0,0,4.22-9.75,13,13,0,1,0-26,.14,13.36,13.36,0,0,0,4.18,9.62A12.08,12.08,0,0,0,80.32,51.4ZM76.4,34.29a5.73,5.73,0,0,1,9.68,4.13,6.11,6.11,0,0,1-1.91,4.35,4.69,4.69,0,0,1-3.57,1.31l-.24,0h-.24a4.8,4.8,0,0,1-3.57-1.3,6,6,0,0,1-1.86-4.33A5.74,5.74,0,0,1,76.4,34.29Z"/><path class="cls-2" d="M35.86,46.81a13.37,13.37,0,0,0,9.37,4.66h.46A12.9,12.9,0,0,0,54.55,48a13.1,13.1,0,0,0,4.2-9.06A13.25,13.25,0,0,0,46.17,25.37a13,13,0,0,0-9.88,4.14,12.17,12.17,0,0,0-3.4,9A11.44,11.44,0,0,0,35.86,46.81Zm5.76-12.27a5.84,5.84,0,0,1,4.16-1.85h.16a6,6,0,0,1,5.49,6,5.82,5.82,0,0,1-1.88,3.93,5.56,5.56,0,0,1-4.06,1.54A6.11,6.11,0,0,1,41.39,42a4.28,4.28,0,0,1-1.18-3.09l0-.35,0-.35A4.81,4.81,0,0,1,41.62,34.54Z"/><path class="cls-2" d="M100.19,60.39q-14.06,0-28.11,0H39c-4.14,0-8.27,0-12.41,0a5.15,5.15,0,0,0-3.94,1.5,5,5,0,0,0-1.17,4c.05.55.08,1.1.1,1.65,0,.85.08,1.71.18,2.57a40.9,40.9,0,0,0,6.56,17.63A41.64,41.64,0,0,0,42.26,101a39.47,39.47,0,0,0,16.59,5.46c1.8.16,3.47.24,5,.24a37.27,37.27,0,0,0,6.49-.53,41.05,41.05,0,0,0,12.18-4,42.32,42.32,0,0,0,20.13-22.45,42,42,0,0,0,2.81-13.8h0a5.4,5.4,0,0,0-1.28-4.14A5.16,5.16,0,0,0,100.19,60.39ZM95.87,77A35,35,0,0,1,79.15,95.67a33.89,33.89,0,0,1-10,3.26,36.72,36.72,0,0,1-9.63.21A32.22,32.22,0,0,1,46,94.66a34.37,34.37,0,0,1-11.47-11,33.2,33.2,0,0,1-5.42-14.49c-.06-.49-.09-1-.11-1.48,3.36,0,6.72,0,10.08,0h33q13,0,26,0A34,34,0,0,1,95.87,77Z"/><path class="cls-2" d="M64.13,127.06a63.13,63.13,0,1,1,63.12-63.13A63.2,63.2,0,0,1,64.13,127.06Zm0-120.13a57,57,0,1,0,57,57A57.07,57.07,0,0,0,64.13,6.93Z"/></svg>