<svg id="Layer_1" data-name="Layer 1" xmlns="http://www.w3.org/2000/svg" viewBox="0 0 128 128"><defs><style>.cls-1{fill:#196ae5;}</style></defs><title>Artboard 41 copy 3</title><ellipse class="cls-1" cx="17.35" cy="19.77" rx="3.43" ry="3.5"/><ellipse class="cls-1" cx="28.06" cy="19.77" rx="3.43" ry="3.5"/><ellipse class="cls-1" cx="38.77" cy="19.77" rx="3.43" ry="3.5"/><path class="cls-1" d="M110.65,127H15.24A15.34,15.34,0,0,1,.08,111.54V16.4A15.34,15.34,0,0,1,15.24.92h95.41A15.34,15.34,0,0,1,125.82,16.4v95.14A15.34,15.34,0,0,1,110.65,127ZM15.24,8.34a8,8,0,0,0-7.9,8.06v95.14a8,8,0,0,0,7.9,8.06h95.41a8,8,0,0,0,7.9-8.06V16.4a8,8,0,0,0-7.9-8.06Z"/><rect class="cls-1" x="13.34" y="29.87" width="99.21" height="6.97"/><path class="cls-1" d="M78.82,73.37H73.47c0-7.69-4.72-13.94-10.52-13.94S52.43,65.69,52.43,73.37H47.08c0-10.7,7.12-19.4,15.87-19.4S78.82,62.68,78.82,73.37Z"/><path class="cls-1" d="M82.85,75.15H43A4.79,4.79,0,0,0,38.31,80v21.55A4.79,4.79,0,0,0,43,106.38h39.8a4.79,4.79,0,0,0,4.74-4.84V80A4.79,4.79,0,0,0,82.85,75.15ZM62.95,98.46a4.21,4.21,0,1,1,4.12-4.21A4.16,4.16,0,0,1,62.95,98.46Z"/></svg>