<svg id="Layer_1" data-name="Layer 1" xmlns="http://www.w3.org/2000/svg" viewBox="0 0 128 128"><defs><style>.cls-1{fill:#196ae5;}.cls-2{fill:#fff;}</style></defs><title>Artboard 46 copy 3</title><path class="cls-1" d="M42.05,14.23q-19.48,0-39,0c-.94,0-1.15.21-1.15,1.15Q2,66.9,2,118.45c12.9,0,25.81,0,38.71,0,1.14,0,1.41-.28,1.41-1.41Q42,65.65,42.05,14.23ZM11,22.23c3.71,0,7.43,0,11.15,0s7.26,0,10.89,0c.82,0,1,.22,1,1q0,11,0,22c0,.82-.22,1-1,1q-11,0-22,0c-.82,0-1-.22-1-1q0-11,0-22C10,22.42,10.18,22.22,11,22.23Zm22,88.23c-3.72,0-7.43,0-11.15,0s-7.26,0-10.9,0c-.82,0-1-.2-1-1q0-11,0-22c0-.82.21-1,1-1q11,0,22,0c.82,0,1,.21,1,1q0,11,0,22C34.06,110.25,33.85,110.47,33,110.46Zm1-33.1c0,.81-.2,1-1,1-3.71,0-7.43,0-11.15,0s-7.26,0-10.9,0c-.82,0-1-.2-1-1q.05-11,0-22c0-.81.19-1,1-1q11,.05,22,0c.81,0,1,.19,1,1Q34,66.33,34.05,77.35Z"/><path class="cls-2" d="M40.7,118.95h0q-15.34-.05-30.68,0H1.5V104.39q0-44.52,0-89a1.72,1.72,0,0,1,.36-1.26,1.79,1.79,0,0,1,1.26-.36q15.64,0,31.28,0h8.14V27.08q0,45,0,90a2,2,0,0,1-.42,1.46A2,2,0,0,1,40.7,118.95ZM18,118q11.33,0,22.65,0h0a1.28,1.28,0,0,0,.78-.14,1.34,1.34,0,0,0,.14-.8q0-45,0-90V14.69H34.38q-15.64,0-31.29,0h0c-.45,0-.56.06-.58.09s-.09.14-.09.6q0,44.52,0,89V118H18Zm15.07-7.06H33c-2.68,0-5.36,0-8,0H19.13c-2.71,0-5.43,0-8.14,0a1.59,1.59,0,0,1-1.15-.33,1.57,1.57,0,0,1-.34-1.16c0-7.31,0-14.73,0-22a1.56,1.56,0,0,1,.34-1.15A1.65,1.65,0,0,1,11,85.9c7.38,0,14.79,0,22,0a1.58,1.58,0,0,1,1.15.34,1.55,1.55,0,0,1,.34,1.15c0,7.38,0,14.79,0,22a1.56,1.56,0,0,1-.34,1.16A1.49,1.49,0,0,1,33.09,110.92ZM33,110c.43,0,.48-.06.48-.06s.07-.08.07-.49c0-7.25,0-14.67,0-22,0-.41-.06-.48-.07-.49s-.11-.1-.49-.07c-7.25,0-14.67,0-22,0-.4,0-.48.06-.49.07s-.07.09-.07.49c0,7.32,0,14.73,0,22,0,.41.06.48.07.49s.07.06.44.06h0c2.72,0,5.43,0,8.16,0H25C27.67,110,30.36,110,33,110ZM10.93,78.85a1.49,1.49,0,0,1-1.09-.33,1.56,1.56,0,0,1-.34-1.16c0-7.18,0-14.59,0-22a1.55,1.55,0,0,1,.34-1.15A1.52,1.52,0,0,1,11,53.83c7.14,0,14.55,0,22,0a1.54,1.54,0,0,1,1.16.34,1.56,1.56,0,0,1,.34,1.15c0,7.11,0,14.53,0,22h0A1.26,1.26,0,0,1,33,78.85c-2.78,0-5.56,0-8.33,0H18.93c-2.65,0-5.29,0-7.94,0Zm0-24.09c-.39,0-.46.06-.47.07s-.07.08-.07.49c0,7.45,0,14.87,0,22,0,.41.06.48.07.49s.06.06.48.06c2.65,0,5.3,0,7.95,0H24.7c2.78,0,5.56,0,8.34,0,.39,0,.47-.06.48-.06s.07-.09.07-.5h0c0-7.51,0-14.93,0-22,0-.4-.06-.47-.07-.48s-.09-.07-.48-.07h0c-7.49,0-14.9,0-22,0Zm22.09-8h0c-7.35,0-14.76,0-22,0a1.49,1.49,0,0,1-1.15-.34,1.57,1.57,0,0,1-.34-1.15c0-7.58,0-15,0-22a1.56,1.56,0,0,1,.34-1.15A1.62,1.62,0,0,1,11,21.76c2.7,0,5.39,0,8.09,0H25c2.69,0,5.37,0,8.06,0a1.53,1.53,0,0,1,1.15.34,1.57,1.57,0,0,1,.35,1.16c0,7.45,0,14.86,0,22a1.56,1.56,0,0,1-.34,1.15A1.52,1.52,0,0,1,33.06,46.78Zm-11.28-1,11.26,0a1.92,1.92,0,0,0,.49-.07s.07-.08.07-.48c0-7.18,0-14.59,0-22,0-.4-.06-.48-.07-.5s-.07-.07-.48-.07c-2.69,0-5.38,0-8.08,0H19.09c-2.7,0-5.4,0-8.1,0h0c-.41,0-.48.06-.49.06s-.07.08-.07.49c0,7,0,14.46,0,22,0,.4.06.48.07.49a.93.93,0,0,0,.48.07Z"/><path class="cls-1" d="M66.11,14.23q0,51.48,0,103c0,1,.24,1.29,1.28,1.28q18.79-.06,37.58,0c1,0,1.28-.24,1.28-1.28q0-51.48,0-103Zm9,8q11,.05,22,0c.81,0,1,.2,1,1,0,3.67,0,7.35,0,11s0,7.35,0,11c0,.81-.2,1-1,1q-11-.05-22,0c-.81,0-1-.19-1-1q0-11,0-22C74.1,22.44,74.3,22.22,75.13,22.23Zm0,32.07q11,.05,22,0c.82,0,1,.2,1,1q0,11,0,22c0,.82-.21,1-1,1q-11,0-22,0c-.82,0-1-.2-1-1,0-3.67,0-7.35,0-11s0-7.35,0-11C74.09,54.5,74.31,54.29,75.13,54.3Zm23,44.24c0,3.63,0,7.26,0,10.9,0,.81-.19,1-1,1q-11-.05-22,0c-.8,0-1-.19-1-1q.05-11,0-22c0-.81.19-1,1-1q11,0,22,0c.81,0,1,.2,1,1C98.15,91.1,98.18,94.82,98.17,98.53Z"/><path class="cls-2" d="M67.33,118.95a1.81,1.81,0,0,1-1.33-.39,1.86,1.86,0,0,1-.39-1.37q0-44.77,0-89.54V13.76h41v13.9q0,44.77,0,89.54a1.86,1.86,0,0,1-.39,1.36,1.83,1.83,0,0,1-1.34.38h0c-12.28,0-24.92,0-37.58,0ZM66.57,14.69v13q0,44.77,0,89.54c0,.49.06.65.11.7s.17.09.7.11c12.66,0,25.3,0,37.58,0h0c.47,0,.63-.06.68-.11s.11-.22.11-.7q0-44.77,0-89.54v-13Zm8.54,96.23a1.53,1.53,0,0,1-1.13-.34,1.56,1.56,0,0,1-.34-1.14c0-7.11,0-14.53,0-22A1.55,1.55,0,0,1,74,86.24a1.61,1.61,0,0,1,1.15-.34c7.21,0,14.63,0,22,0a1.49,1.49,0,0,1,1.16.34,1.54,1.54,0,0,1,.34,1.15c0,2.67,0,5.34,0,8v6.06c0,2.65,0,5.3,0,8a1.55,1.55,0,0,1-.33,1.16,1.67,1.67,0,0,1-1.15.34c-7,0-14.43,0-22,0Zm0-24.09c-.39,0-.46.06-.47.07s-.07.09-.07.49c0,7.51,0,14.93,0,22,0,.4.06.47.07.48a2.18,2.18,0,0,0,.5.07c7.61,0,15,0,22,0,.4,0,.48-.06.49-.07s.07-.08.06-.49c0-2.66,0-5.31,0-8V95.4c0-2.67,0-5.35,0-8,0-.4-.06-.47-.06-.48a1.76,1.76,0,0,0-.5-.07c-7.42,0-14.83,0-22,0Zm22.08-8h0c-7.28,0-14.69,0-22,0h0A1.53,1.53,0,0,1,74,78.51a1.55,1.55,0,0,1-.33-1.15c0-2.74,0-5.47,0-8.21v-5.9c0-2.64,0-5.28,0-7.92A1.56,1.56,0,0,1,74,54.17a1.45,1.45,0,0,1,1.16-.34h0c7.31,0,14.73,0,22,0a1.47,1.47,0,0,1,1.15.34,1.56,1.56,0,0,1,.34,1.15c0,7.31,0,14.73,0,22a1.57,1.57,0,0,1-.34,1.15A1.54,1.54,0,0,1,97.19,78.85Zm-11.12-1,11.1,0c.42,0,.48-.06.49-.07s.07-.08.07-.49c0-7.32,0-14.73,0-22,0-.41-.06-.48-.07-.48a2.61,2.61,0,0,0-.49-.07c-7.31,0-14.73,0-22,0h0c-.39,0-.47.06-.47.07s-.07.08-.07.48c0,2.64,0,5.29,0,7.93v5.9c0,2.74,0,5.48,0,8.22,0,.4.05.48.06.48s.1.09.49.07ZM97.19,46.78h0c-7.31,0-14.72,0-22,0A1.64,1.64,0,0,1,74,46.44a1.56,1.56,0,0,1-.34-1.15c0-7.18,0-14.59,0-22A1.57,1.57,0,0,1,74,22.1a1.61,1.61,0,0,1,1.15-.34h0c7.25,0,14.66,0,22,0a1.58,1.58,0,0,1,1.16.34,1.55,1.55,0,0,1,.33,1.15c0,2.75,0,5.51,0,8.26v5.82c0,2.65,0,5.3,0,8a1.55,1.55,0,0,1-.33,1.15A1.54,1.54,0,0,1,97.19,46.78Zm-11.35-1,11.33,0h0c.39,0,.46-.06.47-.07s.07-.08.06-.48c0-2.66,0-5.31,0-8V31.52c0-2.76,0-5.52,0-8.27,0-.4-.06-.47-.06-.48a3.1,3.1,0,0,0-.49-.07c-7.38,0-14.8,0-22,0-.4,0-.48.06-.49.07s-.07.09-.07.49c0,7.45,0,14.87,0,22,0,.4.06.48.07.48s.08.07.47.07h0Z"/><path class="cls-1" d="M46,37.39c0,.69.15.92.88.91,2.38,0,4.76,0,7.14,0s4.76,0,7.14,0c.69,0,.93-.15.91-.88-.05-2.09,0-4.18,0-6.26,0-.69-.16-.91-.88-.91q-7.14.05-14.28,0c-.69,0-.93.15-.91.88C46.09,33.21,46.09,35.3,46,37.39Z"/><path class="cls-2" d="M46.86,38.77a1.32,1.32,0,0,1-1-.31,1.42,1.42,0,0,1-.31-1.07h0c0-2.26,0-4.3,0-6.24a1.39,1.39,0,0,1,.3-1A1.45,1.45,0,0,1,47,29.78c5,0,9.7,0,14.27,0a1.53,1.53,0,0,1,1,.32,1.42,1.42,0,0,1,.31,1.06c0,2.25,0,4.29,0,6.24a1.39,1.39,0,0,1-.31,1,1.46,1.46,0,0,1-1.07.32c-1.73,0-3.47,0-5.2,0H52.08c-1.72,0-3.43,0-5.14,0Zm-.31-1s.07.06.36,0c1.72,0,3.44,0,5.16,0H56c1.74,0,3.48,0,5.22,0a1.13,1.13,0,0,0,.4,0h0a.83.83,0,0,0,0-.36c0-2,0-4,0-6.28,0-.32,0-.38,0-.39h0a.81.81,0,0,0-.36,0h0c-4.58,0-9.25,0-14.29,0a1.49,1.49,0,0,0-.4,0h0a.88.88,0,0,0,0,.36c0,2,.05,4,0,6.28h0a.85.85,0,0,0,0,.4Z"/><path class="cls-1" d="M110.18,37.41c0,.72.2.89.9.89q7.14,0,14.28,0c.71,0,.91-.2.89-.9q-.07-3.13,0-6.26c0-.72-.2-.9-.9-.89-2.34,0-4.68,0-7,0h0c-2.42,0-4.84,0-7.26,0-.71,0-.91.2-.9.9Q110.25,34.28,110.18,37.41Z"/><path class="cls-2" d="M125.39,38.76h0c-4.64,0-9.45,0-14.27,0a1.46,1.46,0,0,1-1.07-.32,1.4,1.4,0,0,1-.31-1c0-2,0-4.1,0-6.24a1.16,1.16,0,0,1,1.37-1.38c1.75,0,3.5,0,5.25,0h4c1.68,0,3.37,0,5.05,0a1.41,1.41,0,0,1,1.07.31,1.39,1.39,0,0,1,.31,1.05c0,2,0,4.13,0,6.24a1.39,1.39,0,0,1-.3,1.05A1.37,1.37,0,0,1,125.39,38.76Zm-7.17-1,7.14,0c.32,0,.38,0,.38,0h0a.91.91,0,0,0,0-.38c0-2.13,0-4.24,0-6.28a.79.79,0,0,0,0-.38h0a.93.93,0,0,0-.38,0c-1.69,0-3.38,0-5.08,0h-4c-1.76,0-3.51,0-5.27,0a1,1,0,0,0-.38,0s0,.07,0,.38c0,2.15,0,4.27,0,6.28h0c0,.3,0,.37,0,.37a.67.67,0,0,0,.39,0Z"/><path class="cls-1" d="M62.11,63.21c0-.72-.2-.89-.9-.89q-7.14,0-14.28,0c-.71,0-.91.19-.89.9q.07,3.13,0,6.26c0,.71.19.9.9.89,2.38,0,4.76,0,7.14,0h0c2.38,0,4.76,0,7.14,0,.71,0,.91-.2.9-.9Q62,66.34,62.11,63.21Z"/><path class="cls-2" d="M61.28,70.84h-.07c-1.72,0-3.44,0-5.16,0H52.12c-1.72,0-3.45,0-5.17,0a1.45,1.45,0,0,1-1.06-.31,1.4,1.4,0,0,1-.31-1.05c0-2,0-4.09,0-6.24a1.16,1.16,0,0,1,1.36-1.37c4.67,0,9.47,0,14.27,0h0a1.15,1.15,0,0,1,1.34,1.37h0c0,2,0,4.13,0,6.24a1.41,1.41,0,0,1-.31,1.06A1.36,1.36,0,0,1,61.28,70.84Zm-3.25-1c1.07,0,2.13,0,3.2,0a1.17,1.17,0,0,0,.38,0,.82.82,0,0,0,0-.38c0-2.12,0-4.24,0-6.28a.78.78,0,0,0,0-.37,1,1,0,0,0-.39,0c-4.81,0-9.61,0-14.28,0a1,1,0,0,0-.39,0h0a.87.87,0,0,0,0,.38c0,2.16,0,4.28,0,6.28,0,.31,0,.37,0,.38h0a1.36,1.36,0,0,0,.38,0c1.73,0,3.46,0,5.2,0H58Z"/><path class="cls-1" d="M125.26,62.32c-2.34,0-4.68,0-7,0s-4.76,0-7.14,0c-.66,0-.95.1-.93.86.06,2.09,0,4.18,0,6.26,0,.66.1.94.86.93q7.2-.06,14.4,0c.72,0,.8-.26.79-.86,0-2.09-.06-4.18,0-6.26C126.29,62.41,126,62.3,125.26,62.32Z"/><path class="cls-2" d="M111,70.84a1.36,1.36,0,0,1-1-.32,1.43,1.43,0,0,1-.31-1.08c0-2.46,0-4.44,0-6.24a1.38,1.38,0,0,1,.31-1,1.44,1.44,0,0,1,1.1-.31c1.75,0,3.5,0,5.24,0h3.89c1.67,0,3.33,0,5,0h0a1.45,1.45,0,0,1,1.16.32,1.44,1.44,0,0,1,.31,1.09c-.07,2.11,0,4.31,0,6.24a1.36,1.36,0,0,1-.29,1,1.25,1.25,0,0,1-1,.31c-4.8,0-9.64,0-14.4,0Zm-.33-1a1.43,1.43,0,0,0,.36,0c4.76,0,9.61,0,14.41,0h0a.65.65,0,0,0,.29,0,3,3,0,0,0,0-.35c0-1.94-.06-4.15,0-6.28,0-.33,0-.4,0-.4s-.11-.05-.48,0h0c-1.67,0-3.35,0-5,0h-3.89c-1.75,0-3.51,0-5.26,0a1.34,1.34,0,0,0-.42,0,.86.86,0,0,0,0,.34c0,1.81.05,3.81,0,6.28a.93.93,0,0,0,0,.41Z"/><path class="cls-1" d="M62.11,95.28c0-.71-.18-.9-.89-.89q-7.14,0-14.28,0c-.7,0-.92.19-.9.9q.07,3.13,0,6.26c0,.71.19.91.9.89,2.38,0,4.76,0,7.14,0s4.76,0,7.14,0c.71,0,.91-.19.9-.9Q62,98.41,62.11,95.28Z"/><path class="cls-2" d="M46.87,102.9a1.32,1.32,0,0,1-1-.32,1.4,1.4,0,0,1-.31-1.05c0-2,0-4.13,0-6.24a1.4,1.4,0,0,1,.31-1,1.37,1.37,0,0,1,1.06-.33c4.87,0,9.68,0,14.27,0h0a1.15,1.15,0,0,1,1.33,1.37h0c0,2.07,0,4.17,0,6.24a1.41,1.41,0,0,1-.31,1.06,1.38,1.38,0,0,1-1.06.32c-1.71,0-3.43,0-5.14,0h-4c-1.72,0-3.44,0-5.16,0Zm-.32-1s0,0,.38,0c1.73,0,3.45,0,5.18,0h4c1.72,0,3.44,0,5.16,0a.91.91,0,0,0,.38,0h0a.87.87,0,0,0,0-.38c0-2.08,0-4.2,0-6.28a.79.79,0,0,0,0-.38h0a.64.64,0,0,0-.38,0c-4.6,0-9.4,0-14.29,0h0c-.3,0-.37,0-.37,0a.82.82,0,0,0,0,.37c0,2.13,0,4.24,0,6.28,0,.31,0,.38,0,.38Z"/><path class="cls-1" d="M125.35,94.39c-2.34,0-4.68,0-7,0s-4.84,0-7.26,0c-.56,0-.91,0-.89.77.06,2.17,0,4.34,0,6.51,0,.62.2.76.78.75q7.26,0,14.53,0c.62,0,.76-.19.76-.78,0-2.13,0-4.26,0-6.39C126.27,94.54,126,94.37,125.35,94.39Z"/><path class="cls-2" d="M125.51,102.9h0q-7.26,0-14.52,0a1.26,1.26,0,0,1-1-.3,1.24,1.24,0,0,1-.29-.93c0-1.92.06-4.19,0-6.49a1.27,1.27,0,0,1,.29-1,1.41,1.41,0,0,1,1.07-.3h9.26c1.67,0,3.34,0,5,0h0a1.48,1.48,0,0,1,1.07.32,1.39,1.39,0,0,1,.31,1c0,1.82,0,3.79,0,6.37a1.06,1.06,0,0,1-1.21,1.25Zm-7.21-1,7.19,0,.28,0s0-.08,0-.27c0-2.59,0-4.57,0-6.4,0-.3,0-.36,0-.37a.94.94,0,0,0-.4,0h0c-1.68,0-3.35,0-5,0h-3.94c-1.78,0-3.55,0-5.32,0a2,2,0,0,0-.41,0,2.1,2.1,0,0,0,0,.27c.06,2.32,0,4.6,0,6.53a.72.72,0,0,0,0,.27s.07,0,.27,0h0Z"/><path class="cls-1" d="M18,37.5c0,.56.08.81.73.8,2.17,0,4.34,0,6.51,0,.72,0,.81-.27.79-.87,0-1,0-2.09,0-3.13s0-2.17,0-3.26c0-.56-.08-.81-.73-.8-2.17,0-4.34,0-6.51,0-.72,0-.8.27-.79.87Q18,34.31,18,37.5Z"/><path class="cls-2" d="M25.3,38.77h-.07c-2,0-4.1-.05-6.49,0a1.22,1.22,0,0,1-.92-.29,1.29,1.29,0,0,1-.29-1h0c0-2,0-4.19,0-6.37a1.38,1.38,0,0,1,.3-1,1.34,1.34,0,0,1,1-.3c2,0,4.1.05,6.49,0a1,1,0,0,1,1.21,1.28c0,.76,0,1.52,0,2.28v1.88c0,.73,0,1.47,0,2.2a1.35,1.35,0,0,1-.29,1A1.24,1.24,0,0,1,25.3,38.77ZM22,37.8c1.12,0,2.19,0,3.22,0a.61.61,0,0,0,.31,0h0a2.2,2.2,0,0,0,0-.35c0-.74,0-1.49,0-2.24V33.35c0-.77,0-1.55,0-2.32a1,1,0,0,0,0-.31h-.24c-2.4,0-4.54,0-6.53,0-.26,0-.3,0-.3,0a2.24,2.24,0,0,0,0,.37c0,2.19,0,4.34,0,6.4h0a1.09,1.09,0,0,0,0,.32h.24C19.88,37.81,21,37.8,22,37.8Z"/><path class="cls-1" d="M26,66.37c0-1.09,0-2.17,0-3.26,0-.56-.08-.81-.73-.8-2.17,0-4.34,0-6.51,0-.72,0-.8.28-.8.87,0,2.09.06,4.18,0,6.26,0,.84.3.93,1,.92,2,0,4.09-.06,6.14,0,.84,0,1-.28.92-1C26,68.38,26,67.37,26,66.37Z"/><path class="cls-2" d="M25.23,70.84H25.1c-2.12-.08-4.28,0-6.11,0a1.5,1.5,0,0,1-1.17-.32,1.43,1.43,0,0,1-.31-1.08c.06-1.93,0-3.91,0-5.82v-.42a1.37,1.37,0,0,1,.3-1,1.32,1.32,0,0,1,1-.3c2,0,4.12,0,6.49,0a1.05,1.05,0,0,1,1.21,1.28c0,.78,0,1.56,0,2.34v1.81c0,.69,0,1.38,0,2.07a1.48,1.48,0,0,1-.29,1.17A1.32,1.32,0,0,1,25.23,70.84Zm-3-1c1,0,2,0,3,0,.35,0,.41,0,.41,0a1,1,0,0,0,0-.46c0-.71,0-1.43,0-2.14V65.48c0-.79,0-1.58,0-2.37a1,1,0,0,0,0-.31s-.07,0-.2,0h0c-2.38,0-4.52,0-6.53,0-.25,0-.3,0-.3,0a1.8,1.8,0,0,0,0,.37v.42c0,1.92,0,3.91,0,5.86,0,.32,0,.4,0,.4s.1,0,.48,0C20,69.88,21.05,69.86,22.18,69.86Z"/><path class="cls-1" d="M25.83,94.66c-.72-.8-2.43-.22-3.7-.25s-3.12-.48-3.87.19-.21,2.58-.25,3.94-.45,2.92.18,3.63,2.43.13,3.7.19,3.13.52,3.87-.14.23-2.58.26-3.94S26.46,95.35,25.83,94.66Z"/><path class="cls-2" d="M19.35,103a1.9,1.9,0,0,1-1.52-.56c-.6-.68-.48-1.83-.37-2.95,0-.35.07-.69.08-1a9.8,9.8,0,0,0-.09-1.3c-.13-1.13-.26-2.29.5-3s1.91-.51,3.08-.39c.38,0,.76.08,1.11.08a9.42,9.42,0,0,0,1.2-.09c1.07-.12,2.19-.24,2.84.49h0c.6.66.48,1.8.37,2.89,0,.36-.07.72-.08,1a10,10,0,0,0,.09,1.28c.13,1.14.26,2.32-.5,3s-1.81.47-2.92.35a12.13,12.13,0,0,0-1.26-.1,7.27,7.27,0,0,0-1.31.1A9.6,9.6,0,0,1,19.35,103Zm.28-8.34a1.66,1.66,0,0,0-1.06.24c-.4.36-.3,1.28-.2,2.18a10.47,10.47,0,0,1,.1,1.44c0,.33,0,.7-.08,1.07-.09.87-.19,1.86.14,2.24s1.13.25,1.92.14a8,8,0,0,1,1.46-.11h0a13,13,0,0,1,1.33.1c.86.09,1.84.2,2.19-.12s.3-1.3.2-2.2a10.92,10.92,0,0,1-.1-1.4c0-.35,0-.73.08-1.12.08-.86.18-1.82-.14-2.18h0c-.34-.37-1.21-.28-2-.18a9.36,9.36,0,0,1-1.32.09c-.37,0-.77,0-1.18-.09S20,94.7,19.63,94.7Z"/><path class="cls-1" d="M82.13,37.58c0,.53.12.73.69.72q3.32,0,6.64,0c.53,0,.74-.12.71-.69,0-1.08,0-2.17,0-3.26h0c0-1.13,0-2.25,0-3.38,0-.54-.13-.72-.69-.71q-3.32,0-6.64,0c-.53,0-.72.12-.71.69C82.16,33.15,82.15,35.37,82.13,37.58Z"/><path class="cls-2" d="M82.78,38.76a1.16,1.16,0,0,1-.84-.28,1.21,1.21,0,0,1-.28-.91c0-2.41,0-4.58,0-6.62a1,1,0,0,1,1.19-1.16c2.35,0,4.51,0,6.63,0a1.21,1.21,0,0,1,.9.29,1.2,1.2,0,0,1,.27.91c0,.79,0,1.58,0,2.38v1.46h0v.51c0,.75,0,1.51,0,2.26a1.17,1.17,0,0,1-.26.89,1.26,1.26,0,0,1-.92.29c-2.38,0-4.55,0-6.63,0Zm-.16-.94h.18c2.09,0,4.26,0,6.65,0l.24,0s0-.08,0-.19c0-.77,0-1.54,0-2.31v-2c0-.8,0-1.61,0-2.41a1,1,0,0,0,0-.23h-.21c-2.12,0-4.3,0-6.65,0a.82.82,0,0,0-.24,0s0,.08,0,.2c0,2.05,0,4.23,0,6.65h0a1,1,0,0,0,0,.24Z"/><path class="cls-1" d="M82.19,66.34c0,1.29-.51,3,.13,3.75s2.5.22,3.82.26,3,.47,3.75-.18.24-2.51.25-3.82.58-3.08-.24-3.82-2.46-.18-3.75-.18-3-.47-3.75.18S82.24,65,82.19,66.34Z"/><path class="cls-2" d="M83.65,71A2.11,2.11,0,0,1,82,70.4c-.58-.66-.46-1.77-.34-2.84a11.75,11.75,0,0,0,.09-1.22v0a8.58,8.58,0,0,0-.1-1.3c-.14-1.08-.28-2.19.47-2.85s1.8-.48,2.89-.38c.4,0,.8.08,1.17.08h0c.36,0,.76,0,1.17-.08,1.09-.1,2.22-.21,2.89.38s.62,1.87.49,3a11.14,11.14,0,0,0-.09,1.16,10.27,10.27,0,0,0,.09,1.19c.13,1.13.27,2.3-.5,3s-1.86.49-3,.38c-.37,0-.74-.07-1.07-.08a10,10,0,0,0-1.24.09A11.32,11.32,0,0,1,83.65,71Zm-1-4.64a12.56,12.56,0,0,1-.1,1.31c-.09.83-.19,1.77.11,2.12s1.24.29,2.11.19a11,11,0,0,1,1.37-.09c.36,0,.74,0,1.14.09.89.09,1.91.19,2.29-.15s.3-1.28.19-2.18a11.41,11.41,0,0,1-.1-1.3,11.7,11.7,0,0,1,.1-1.26c.11-.91.21-1.84-.19-2.21s-1.32-.23-2.17-.15c-.44,0-.87,0-1.26.08s-.82,0-1.26-.08c-.85-.08-1.81-.17-2.18.15s-.27,1.2-.16,2A9.37,9.37,0,0,1,82.66,66.35Z"/><path class="cls-1" d="M90.16,96.51c0-2.1,0-2.1-2-2.11H86.25c-1.33,0-3.13-.47-3.86.2s-.21,2.59-.24,3.95-.45,2.92.18,3.62,2.43.13,3.53.25c1.27,0,2.35,0,3.44,0,.74,0,.9-.24.88-.92C90.13,99.85,90.16,98.18,90.16,96.51Z"/><path class="cls-2" d="M83.53,103a2,2,0,0,1-1.54-.56c-.6-.66-.49-1.81-.38-2.91,0-.36.07-.71.08-1a10.3,10.3,0,0,0-.09-1.29c-.13-1.13-.26-2.3.48-3s1.81-.5,2.92-.4a11.08,11.08,0,0,0,1.25.08h1.88c2.29,0,2.5.22,2.5,2.57v1.26c0,1.25,0,2.49,0,3.74a1.42,1.42,0,0,1-.32,1.11,1.35,1.35,0,0,1-1,.29c-.73,0-1.48,0-2.28,0H85.86a6,6,0,0,0-1.23.07A9.32,9.32,0,0,1,83.53,103Zm.19-8.33a1.57,1.57,0,0,0-1,.23c-.4.37-.29,1.3-.19,2.2a10.55,10.55,0,0,1,.1,1.42c0,.34,0,.72-.08,1.1-.09.86-.18,1.84.14,2.2s1.09.26,1.84.16a6.51,6.51,0,0,1,1.39-.07H87c.81,0,1.58,0,2.35,0a.8.8,0,0,0,.34,0,.89.89,0,0,0,0-.41c0-1.26,0-2.51,0-3.77V96.5c0-1.63,0-1.63-1.57-1.63H86.26c-.4,0-.88,0-1.35-.08S84.09,94.71,83.72,94.71Z"/></svg>