<svg id="Layer_1" data-name="Layer 1" xmlns="http://www.w3.org/2000/svg" viewBox="0 0 128 128"><defs><style>.cls-1{fill:#196ae5;}</style></defs><title>Artboard 46 copy 4</title><path class="cls-1" d="M116.51,126.86H12.27a9.31,9.31,0,0,1-9.3-9.3V11.35A9.32,9.32,0,0,1,12.27,2H116.51a9.32,9.32,0,0,1,9.3,9.31V117.56A9.31,9.31,0,0,1,116.51,126.86ZM12.27,9.09A2.29,2.29,0,0,0,10,11.35V117.56a2.29,2.29,0,0,0,2.26,2.26H116.51a2.29,2.29,0,0,0,2.26-2.26V11.35a2.29,2.29,0,0,0-2.26-2.26Z"/><rect class="cls-1" x="50.76" y="36.98" width="46.79" height="8.6"/><rect class="cls-1" x="31.22" y="36.98" width="7.16" height="8.6"/><rect class="cls-1" x="50.76" y="60.16" width="46.79" height="8.6"/><rect class="cls-1" x="31.22" y="60.16" width="7.16" height="8.6"/><rect class="cls-1" x="50.76" y="83.33" width="46.79" height="8.6"/><rect class="cls-1" x="31.22" y="83.33" width="7.16" height="8.6"/></svg>