<svg id="Layer_1" data-name="Layer 1" xmlns="http://www.w3.org/2000/svg" viewBox="0 0 128 128"><defs><style>.cls-1{fill:#196ae5;}</style></defs><title>Artboard 46 copy 8</title><path class="cls-1" d="M114.88,71.59l-.06-.12C100.92,43,79.09,22.64,49.95,11.07,35.38,5.25,21.29,2.21,8,2A3.16,3.16,0,0,0,4.84,5.19L4.78,29.56a3.17,3.17,0,0,0,3.07,3.17c3.11.09,6.1.29,8.91.58a83.85,83.85,0,0,1,29.09,8.34A89.67,89.67,0,0,1,87.69,83.7l0,.07a95.63,95.63,0,0,1,8.92,39.68,3.16,3.16,0,0,0,3.16,3.16h23.34a3.16,3.16,0,0,0,3.16-3.16v-3.11c0-22.19-11-47.67-11.43-48.75Zm-12,48.7a100.26,100.26,0,0,0-9.56-39.4A95.85,95.85,0,0,0,48.65,36a90.18,90.18,0,0,0-31.26-9c-2-.21-4.1-.37-6.27-.48l0-18.07C22.7,9,34.94,11.88,47.6,16.94A115,115,0,0,1,83.91,39.63,117.31,117.31,0,0,1,109.1,74.17c.59,1.37,10.87,25.77,10.88,46.12Zm0,0"/><path class="cls-1" d="M55.71,58.89a87.3,87.3,0,0,0-49.14-18A3.16,3.16,0,0,0,3.29,44.1V67.47a3.16,3.16,0,0,0,2.62,3.12l10.48,1.83A50.45,50.45,0,0,1,55.6,109.65a92.2,92.2,0,0,1,2.16,14.1,3.16,3.16,0,0,0,3.15,2.86H84.25a3.16,3.16,0,0,0,3.16-3.16c0-20.93-8.6-37.36-15.82-47.45a85.46,85.46,0,0,0-15.87-17.1Zm8.05,61.39a87.44,87.44,0,0,0-2-12.17A56.79,56.79,0,0,0,17.58,66.2h-.07l-7.9-1.38V47.46A81,81,0,0,1,51.84,63.9l0,0a80.68,80.68,0,0,1,14.7,15.94c6.25,8.79,13.64,22.77,14.45,40.44Zm0,0"/><path class="cls-1" d="M22.72,87.08h-.15A20,20,0,0,0,8.58,93a19.46,19.46,0,0,0,0,27.85,19.69,19.69,0,0,0,13.9,5.8h.36a19.78,19.78,0,0,0,19.52-19.84,19.81,19.81,0,0,0-19.66-19.7Zm9.42,29.25a13.21,13.21,0,0,1-9.53,4h-.07A13.64,13.64,0,0,1,9.05,106.92,13.8,13.8,0,0,1,22.62,93.41h.09a13.44,13.44,0,0,1,9.42,22.92Zm0,0"/><path class="cls-1" d="M55.71,58.89a87.3,87.3,0,0,0-49.14-18A3.16,3.16,0,0,0,3.29,44.1V67.47a3.16,3.16,0,0,0,2.62,3.12l10.48,1.83A50.45,50.45,0,0,1,55.6,109.65a92.2,92.2,0,0,1,2.16,14.1,3.16,3.16,0,0,0,3.15,2.86H84.25a3.16,3.16,0,0,0,3.16-3.16c0-20.93-8.6-37.36-15.82-47.45a85.46,85.46,0,0,0-15.87-17.1Zm8.05,61.39a87.44,87.44,0,0,0-2-12.17A56.79,56.79,0,0,0,17.58,66.2h-.07l-7.9-1.38V47.46A81,81,0,0,1,51.84,63.9l0,0a80.68,80.68,0,0,1,14.7,15.94c6.25,8.79,13.64,22.77,14.45,40.44Zm0,0"/><path class="cls-1" d="M22.72,87.08h-.15A20,20,0,0,0,8.58,93a19.46,19.46,0,0,0,0,27.85,19.69,19.69,0,0,0,13.9,5.8h.36a19.78,19.78,0,0,0,19.52-19.84,19.81,19.81,0,0,0-19.66-19.7Zm9.42,29.25a13.21,13.21,0,0,1-9.53,4h-.07A13.64,13.64,0,0,1,9.05,106.92,13.8,13.8,0,0,1,22.62,93.41h.09a13.44,13.44,0,0,1,9.42,22.92Zm0,0"/></svg>