<svg id="Layer_1" data-name="Layer 1" xmlns="http://www.w3.org/2000/svg" viewBox="0 0 128 128"><defs><style>.cls-1{fill:#196ae5;}</style></defs><title>Artboard 41 copy 4</title><path class="cls-1" d="M78,82.4a5.3,5.3,0,0,1-4.2,2h-13a5.33,5.33,0,0,1-5.33-5.33V62a5.68,5.68,0,0,1,4-5.34,5.36,5.36,0,0,1,4.62,1,5.3,5.3,0,0,1,2,4.19v12h7.47a5.7,5.7,0,0,1,5.35,4A5.36,5.36,0,0,1,78,82.4Z"/><path class="cls-1" d="M73.64,75.79H64.17v-14a3.31,3.31,0,0,0-1.27-2.62,3.28,3.28,0,0,0-2-.71,3.66,3.66,0,0,0-.86.11A3.74,3.74,0,0,0,57.51,62V79.12a3.33,3.33,0,0,0,3.33,3.33h13A3.34,3.34,0,0,0,77,78.26,3.76,3.76,0,0,0,73.64,75.79Z"/><path class="cls-1" d="M99.38,102.87A45.4,45.4,0,0,0,64.86,30.21l-1,0V12.26l.66-.24a5.41,5.41,0,0,0,3.67-5.11,5.47,5.47,0,0,0-2.57-4.65A5.74,5.74,0,0,0,60,2.06a4.61,4.61,0,0,0-2.15,2.17A5.69,5.69,0,0,0,57.65,9,5.53,5.53,0,0,0,60.9,12l.66.24V30.19l-.95,0A45.4,45.4,0,0,0,26.69,103l.4.53L16.27,122.3l7.22,4.17L33,109.92l.91.76a45.48,45.48,0,0,0,58.19-.12l.91-.76,9.32,16.14,7.22-4.17L99,103.4Zm-24,7.93a40.31,40.31,0,0,1-12.48,2,36.71,36.71,0,0,1-26.21-10.9c-10.14-10.14-13.46-24.6-8.88-38.69A35.59,35.59,0,0,1,50.55,40.47a41.25,41.25,0,0,1,7.94-1.76A36.84,36.84,0,0,1,89.27,49.34C99.42,59.49,102.74,74,98.14,88A35.59,35.59,0,0,1,75.38,110.79Z"/><path class="cls-1" d="M62.9,112.81a36.72,36.72,0,0,1-26.21-10.9A36.71,36.71,0,0,0,62.9,112.81Z"/><path class="cls-1" d="M50.55,40.47a41.28,41.28,0,0,1,7.94-1.76A41.25,41.25,0,0,0,50.55,40.47Z"/><path class="cls-1" d="M15.38,52.31C21,36.61,35.11,24.51,52.09,20.72l4.36-1L53.9,16.08A28.8,28.8,0,1,0,10.5,53.47l3.33,3.14Zm-7.59-24A22.7,22.7,0,0,1,25.63,10.15a24,24,0,0,1,4.62-.45,22.57,22.57,0,0,1,15.86,6.42A57,57,0,0,0,11.64,45.71,22.58,22.58,0,0,1,7.79,28.33Z"/><path class="cls-1" d="M125.81,27.3a28.81,28.81,0,0,0-52-11.22l-2.56,3.67,4.36,1c17,3.79,31.05,15.89,36.71,31.59l1.55,4.3,3.33-3.14A28.89,28.89,0,0,0,125.81,27.3Zm-9.76,18.4A57,57,0,0,0,81.59,16.12a22.81,22.81,0,0,1,34.47,29.59Z"/></svg>