<svg id="Layer_1" data-name="Layer 1" xmlns="http://www.w3.org/2000/svg" viewBox="0 0 128 128"><defs><style>.cls-1{fill:#196ae5;}</style></defs><title>Artboard 46 copy 5</title><path class="cls-1" d="M64.36,126.41a7,7,0,0,1-2.65-.52A75.69,75.69,0,0,1,14.55,55.78V22.62a7,7,0,0,1,5-6.71L59.6,4.1a16.76,16.76,0,0,1,9.5,0l40,11.81a7,7,0,0,1,5,6.71V55.78A75.69,75.69,0,0,1,67,125.89,7,7,0,0,1,64.36,126.41ZM64.36,9a11.19,11.19,0,0,0-3.17.46l-40,11.81a1.41,1.41,0,0,0-1,1.34V55.78a70.09,70.09,0,0,0,43.67,64.93,1.41,1.41,0,0,0,1.07,0,70.09,70.09,0,0,0,43.67-64.93V22.62a1.41,1.41,0,0,0-1-1.34l-40-11.81A11.19,11.19,0,0,0,64.36,9Z"/><path class="cls-1" d="M64.35,127.34a7.93,7.93,0,0,1-3-.59,76.62,76.62,0,0,1-47.74-71V22.62A8,8,0,0,1,19.3,15l40-11.81a17.67,17.67,0,0,1,10,0l40,11.81a8,8,0,0,1,5.68,7.6V55.78A76.17,76.17,0,0,1,101.72,99a76.54,76.54,0,0,1-34.37,27.72A7.92,7.92,0,0,1,64.35,127.34Zm0-123A15.88,15.88,0,0,0,59.87,5l-40,11.81a6.11,6.11,0,0,0-4.36,5.82V55.78A74.77,74.77,0,0,0,62.06,125a6.09,6.09,0,0,0,4.59,0A74.69,74.69,0,0,0,100.19,98a74.33,74.33,0,0,0,13-42.2V22.62a6.11,6.11,0,0,0-4.36-5.83L68.84,5A15.88,15.88,0,0,0,64.35,4.34Zm0,117.4a2.35,2.35,0,0,1-.89-.17A71,71,0,0,1,19.22,55.78V22.62a2.34,2.34,0,0,1,1.67-2.23l40-11.81a12.14,12.14,0,0,1,6.86,0l40,11.81a2.34,2.34,0,0,1,1.67,2.23V55.78a71,71,0,0,1-44.25,65.79A2.34,2.34,0,0,1,64.35,121.74Zm0-111.8a10.28,10.28,0,0,0-2.91.42l-40,11.81a.48.48,0,0,0-.34.45V55.78a69.17,69.17,0,0,0,43.09,64.07.48.48,0,0,0,.37,0,69.16,69.16,0,0,0,43.09-64.07V22.62a.48.48,0,0,0-.34-.45l-40-11.81A10.23,10.23,0,0,0,64.35,9.94Z"/><path class="cls-1" d="M64.35,109.33a4.19,4.19,0,0,1-1.94-.48,60.28,60.28,0,0,1-21.25-18.7A59.51,59.51,0,0,1,30.32,55.78V32.32a4.22,4.22,0,0,1,3-4l29.84-8.8a4.19,4.19,0,0,1,2.38,0l29.84,8.8a4.22,4.22,0,0,1,3,4V55.78A59.51,59.51,0,0,1,87.55,90.16a60.29,60.29,0,0,1-21.25,18.7A4.19,4.19,0,0,1,64.35,109.33Zm-28.44-76V55.78a53.94,53.94,0,0,0,9.83,31.16,54.7,54.7,0,0,0,18.61,16.61A54.7,54.7,0,0,0,83,86.94a53.94,53.94,0,0,0,9.83-31.16V33.37L64.35,25Z"/><path class="cls-1" d="M64.35,110.26a5.14,5.14,0,0,1-2.38-.58,61.23,61.23,0,0,1-21.58-19,60.43,60.43,0,0,1-11-34.92V32.32a5.16,5.16,0,0,1,3.67-4.92L62.9,18.6a5.1,5.1,0,0,1,2.9,0l29.84,8.8a5.16,5.16,0,0,1,3.68,4.92V55.78a60.43,60.43,0,0,1-11,34.92,61.23,61.23,0,0,1-21.58,19A5.14,5.14,0,0,1,64.35,110.26Zm0-90a3.29,3.29,0,0,0-.93.13l-29.84,8.8a3.29,3.29,0,0,0-2.35,3.14V55.78A58.59,58.59,0,0,0,41.92,89.63,59.34,59.34,0,0,0,62.84,108a3.32,3.32,0,0,0,3,0A59.34,59.34,0,0,0,86.79,89.63,58.58,58.58,0,0,0,97.47,55.78V32.32a3.29,3.29,0,0,0-2.35-3.14l-29.84-8.8A3.29,3.29,0,0,0,64.35,20.25Zm0,84.36-.44-.24A55.68,55.68,0,0,1,45,87.48a54.87,54.87,0,0,1-10-31.7V32.67L64.35,24l29.37,8.66V55.78a54.86,54.86,0,0,1-10,31.7A55.69,55.69,0,0,1,64.8,104.36ZM36.84,34.06V55.78A53,53,0,0,0,46.5,86.41a53.84,53.84,0,0,0,17.86,16.08A53.86,53.86,0,0,0,82.21,86.41a53,53,0,0,0,9.66-30.63V34.06L64.35,25.95Z"/></svg>