<svg id="Layer_1" data-name="Layer 1" xmlns="http://www.w3.org/2000/svg" viewBox="0 0 128 128"><defs><style>.cls-1{fill:#196ae5;}</style></defs><title>Artboard 46 copy 6</title><path class="cls-1" d="M20.94,71a41.16,41.16,0,0,0,6.58.18c1.75,0,3.55-.21,4.86-1.65.45-.5.7-.17.85.26.27.77.49,1.54.73,2.32a43,43,0,0,0,9.22,16.61,32.42,32.42,0,0,0,11.18,8.09,27.17,27.17,0,0,0,17.11,1.61c7.89-1.75,14-6.44,18.69-12.86a43.72,43.72,0,0,0,7.29-15.87c.18-.74.35-.63.81-.23a7.4,7.4,0,0,0,5.21,1.75c2.11-.05,4.22.05,6.34-.19,2.29-.27,5.12-3.16,5.08-5.55-.11-6.6-.14-13.2,0-19.8.06-2.54-3.12-5.84-5.61-5.63-2,.16-3.94,0-5.91,0-.69,0-.87-.19-.86-.87a31.85,31.85,0,0,0-.91-7.6,36.48,36.48,0,0,0-9.45-17.48,34.22,34.22,0,0,0-7.27-5.83A36.39,36.39,0,0,0,72.82,3.62c-1.36-.26-2.72-.49-4.08-.73H62c-.75.52-1.65.31-2.46.43a36.53,36.53,0,0,0-21.2,11.22A37.3,37.3,0,0,0,32,23.46a36.48,36.48,0,0,0-3.86,15.79c0,.69-.2.87-.87.86-2,0-3.94,0-5.92,0a5.87,5.87,0,0,0-5.52,5.4c-.08,6.72,0,13.44,0,20.16C15.87,68.1,18.52,70.69,20.94,71Zm82.45-24.68c1.49.05,3,0,4.47,0,.59,0,.74.17.74.74q0,8.45,0,16.9c0,.58-.16.75-.74.74-1.49,0-3,0-4.47,0-.69,0-.87-.19-.86-.87,0-2.82,0-5.63,0-8.45s0-5.47,0-8.21C102.52,46.53,102.71,46.33,103.39,46.35ZM92.47,60.81a47.84,47.84,0,0,1-2.71,12.06,34.67,34.67,0,0,1-5.53,9.81,26.52,26.52,0,0,1-10.47,8.25,20.87,20.87,0,0,1-10.67,1.61c-6.19-.74-11-3.79-15.16-8.21a31.63,31.63,0,0,1-5.69-8.66,61.64,61.64,0,0,0,10.26,3.14A55.25,55.25,0,0,0,59.22,80c2,.18,3.93.47,5.92.46s3.35-1.15,3.35-3c0-2.25-1.16-3.57-3.29-3.54A51.71,51.71,0,0,1,48.37,71a37,37,0,0,1-8.23-3.78A2.37,2.37,0,0,1,39,65.46,36.39,36.39,0,0,1,38.12,57a43.89,43.89,0,0,1,3.62-17.33,37.68,37.68,0,0,1,5.93-9.35A24.3,24.3,0,0,1,61.11,22.1a20.36,20.36,0,0,1,12.6,1.28A27.28,27.28,0,0,1,83,30.1a37.07,37.07,0,0,1,6.74,11.15,39.21,39.21,0,0,1,2.6,10.5A43.23,43.23,0,0,1,92.47,60.81ZM60.81,9.68a29.88,29.88,0,0,1,24.72,7.24c7,6.08,10.36,13.84,10.65,23a43.8,43.8,0,0,0-7.31-12.91A31.47,31.47,0,0,0,70.93,15.74a27.13,27.13,0,0,0-16.39,1.7,33.16,33.16,0,0,0-12.2,9.12A41.86,41.86,0,0,0,35,39.22c0,.09-.09.18-.17.36C34.37,25.72,45.73,11.75,60.81,9.68ZM22.11,47.14c0-.66.22-.8.82-.78,1.49,0,3,0,4.47,0,.67,0,.79.22.78.82,0,2.82,0,5.63,0,8.45s0,5.39,0,8.09c0,.87-.24,1.08-1.07,1-1.36-.07-2.74,0-4.1,0-.62,0-.91-.07-.91-.82Q22.16,55.53,22.11,47.14Z"/><path class="cls-1" d="M121,112.91a10.05,10.05,0,0,0-4.75-6.93,73.11,73.11,0,0,0-11.6-6c-4.77-2.15-9.58-4.21-14.35-6.34a1,1,0,0,0-1.34.21,50.17,50.17,0,0,1-4.23,3.4c-.81.57-.38.73.12,1,2.92,1.34,5.85,2.69,8.79,4s6.21,2.61,9.26,4a69,69,0,0,1,9.32,4.79c2.19,1.47,3.09,3.25,2.41,5.36a5.66,5.66,0,0,1-5.2,3.87q-44.13-.1-88.26,0a5.48,5.48,0,0,1-4.86-3.89c-.57-2.06,0-3.65,2.11-5.13a42.88,42.88,0,0,1,7-3.75c3.43-1.54,6.85-3.11,10.28-4.64,3.69-1.65,7.4-3.26,11.22-4.94a56.71,56.71,0,0,1-5.1-4.29c-.32-.35-.69-.22-1.09,0-1.76.82-3.52,1.63-5.29,2.4-2.87,1.25-5.79,2.42-8.64,3.73-3.8,1.76-7.73,3.28-11.25,5.59a12.74,12.74,0,0,0-5.13,5.54c-.4.93-.32,2-.78,2.85v2.66c0,5,5.15,10.18,9.9,10.38h91.77c4.74-.15,9.6-5.12,9.9-9.66V113C121.08,113,121,113,121,112.91Z"/></svg>