<svg id="Layer_1" data-name="Layer 1" xmlns="http://www.w3.org/2000/svg" viewBox="0 0 128 128"><defs><style>.cls-1{fill:#196ae5;}</style></defs><title>Artboard 46 copy 7</title><path class="cls-1" d="M73,124.72H55.54l-.47-.17c-1.52-.54-4.67-1.65-6-5.1a12.61,12.61,0,0,1-.77-4.43v-5.71c0-5,0-10.24,0-15.38-2.13-.18-4.64-1.29-6.57-4.79a5.7,5.7,0,0,1-.63-3V86q0-4,0-8.06c0-6.79,0-13.82-.08-20.71A8.5,8.5,0,0,1,49.29,49H78.9a8.36,8.36,0,0,1,5.86,2.61,8,8,0,0,1,2.4,5.64c-.16,8.45-.16,17.38,0,28.12a8.22,8.22,0,0,1-7.24,8.48c0,7.24,0,14.58,0,21.51a9.15,9.15,0,0,1-3.17,7.44,7.53,7.53,0,0,1-2.41,1.29,4.77,4.77,0,0,0-.62.25Zm-16.44-5.85H71.51c.29-.12.56-.22.8-.31a4.48,4.48,0,0,0,.65-.27c.56-.47,1.08-1.16,1.09-3,0-7.3,0-15.06,0-22.66a4.54,4.54,0,0,1,1.17-3.44,4.45,4.45,0,0,1,3.36-1.16,2.83,2.83,0,0,0,2-.73,2.58,2.58,0,0,0,.68-1.91c-.14-10.8-.13-19.79,0-28.3a2.27,2.27,0,0,0-.73-1.43,2.63,2.63,0,0,0-1.69-.85q-14.8,0-29.59,0a2.33,2.33,0,0,0-1.59.77,2.47,2.47,0,0,0-.77,1.55c.12,6.95.1,14,.08,20.82q0,4,0,8v.21c0,.08,0,.17,0,.25,1,1.75,1.74,1.68,2.28,1.62a4.61,4.61,0,0,1,3.63,1,4.75,4.75,0,0,1,1.31,3.71c-.06,5.49,0,11.08,0,16.49V115a6.79,6.79,0,0,0,.4,2.38C54.78,117.93,55.17,118.33,56.57,118.87ZM47,86.58Z"/><path class="cls-1" d="M16.8,101.45a8.12,8.12,0,0,1-5.71-2.39,8.43,8.43,0,0,1-2.55-6q0-4.22,0-8.44c0-3.41,0-6.82,0-10.23C6,74,4,72.25,2.56,69.32l-.3-.61V40.22l.81-1.14c1-1.49,2.48-3.53,5.29-4.22a7.92,7.92,0,0,1,2-.21H35a8.22,8.22,0,0,1,8.1,7.81,6.68,6.68,0,0,1-3.38,6.59,9.53,9.53,0,0,0-4.48,7.25A60.27,60.27,0,0,0,35,64.46c0,1.39,0,2.77,0,4.16,0,2.92,0,5.89,0,8.78,0,2,0,4,0,6a18,18,0,0,0,1.32,6.84,8.36,8.36,0,0,1-.92,7.56,8,8,0,0,1-6.48,3.64c-2.11.05-4.23,0-6.28,0-1.87,0-3.81,0-5.69,0ZM10.28,68.65a4.17,4.17,0,0,1,3,1.09,4.41,4.41,0,0,1,1.17,3.35c0,3.84,0,7.68,0,11.53q0,4.23,0,8.46a2.56,2.56,0,0,0,.8,1.8,2.47,2.47,0,0,0,1.66.71c2,0,3.95,0,5.86,0s4.08,0,6.09,0a2.13,2.13,0,0,0,1.75-1,2.56,2.56,0,0,0,.36-2.18,23.79,23.79,0,0,1-1.73-9c0-2,0-3.94,0-5.92,0-2.91,0-5.92,0-8.89,0-1.33,0-2.65,0-4a65.54,65.54,0,0,1,.29-8.94,15.46,15.46,0,0,1,7.11-11.46c.76-.5.76-.57.71-1.33A2.37,2.37,0,0,0,35,40.5H10.38a3.26,3.26,0,0,0-.61,0c-.56.14-1,.57-1.66,1.55V67.31c.81,1.39,1.42,1.37,1.87,1.35Z"/><path class="cls-1" d="M22.9,28.91a17.07,17.07,0,0,1-2.65-.21A13.08,13.08,0,0,1,9.53,19.5,14,14,0,0,1,10.84,7.68a13.16,13.16,0,0,1,8.17-6l.49-.51h5.65l.48.18a19,19,0,0,1,6.93,3.92c4.6,4.35,5.35,12.27,1.66,17.66A13.27,13.27,0,0,1,22.9,28.91ZM21.72,7a3,3,0,0,1-.82.24,7.26,7.26,0,0,0-5.06,3.47,8.21,8.21,0,0,0-.76,6.91,7.2,7.2,0,0,0,6.08,5.29c3.63.57,6.33-.52,8.25-3.32s1.84-7.55-.86-10.1A12.35,12.35,0,0,0,24.11,7ZM20,1.47h0Z"/><path class="cls-1" d="M105.51,28.93a14.94,14.94,0,0,1-5.58-1.07,13.31,13.31,0,0,1-8.27-12.23A14.19,14.19,0,0,1,94.9,5.91a12.67,12.67,0,0,1,6.15-4.06l.13-.69H108l.48.18a17.23,17.23,0,0,1,7.15,4.18,14.22,14.22,0,0,1,1.67,16.92A13.52,13.52,0,0,1,105.51,28.93ZM103.43,7.29a6.82,6.82,0,0,0-4.05,2.38,8.49,8.49,0,0,0-1.87,5.89,7.57,7.57,0,0,0,4.62,6.88c3.24,1.31,7.91.69,10.2-3.05a8.39,8.39,0,0,0-.93-9.85A11.06,11.06,0,0,0,107,7h-2.37A3.6,3.6,0,0,1,103.43,7.29Z"/><path class="cls-1" d="M105.3,101.51c-1.83,0-3.64,0-5.4-.12a8.78,8.78,0,0,1-7.18-3.75,9.05,9.05,0,0,1-.62-8.32,11.73,11.73,0,0,0,.85-4.2c-.06-8.5-.1-17.61,0-26.61.05-4.54-1.6-7.73-5.21-10l-.1,0a3.73,3.73,0,0,1-2.73-3.12A10.83,10.83,0,0,1,85.09,41c1.23-4.16,4.35-6.49,8.52-6.34,2.73.09,5.54.07,8.25,0q3.66,0,7.31,0c2.78,0,5.66,0,8.46,0a7.74,7.74,0,0,1,5.71,2.24A8.64,8.64,0,0,1,126,42.92q0,11.49,0,23a8.36,8.36,0,0,1-6.59,8.37q0,3,0,5.91c0,4.05,0,8.24,0,12.35.08,5.14-3.26,8.62-8.51,8.85C109,101.47,107.15,101.51,105.3,101.51ZM90.62,43.41l.11.06c5.43,3.37,8.14,8.45,8.06,15.1-.1,9-.06,18,0,26.51a17.34,17.34,0,0,1-1.21,6.27,3.44,3.44,0,0,0,0,3.06,3.15,3.15,0,0,0,2.58,1.13c3.37.16,6.9.16,10.49,0,2.61-.12,2.94-1.54,2.92-2.92-.06-4.16-.05-8.37,0-12.45,0-2.43,0-4.85,0-7.28a3.84,3.84,0,0,1,3.93-4.24,2.6,2.6,0,0,0,2.67-2.75q0-11.49,0-23a2.8,2.8,0,0,0-.85-1.87,2,2,0,0,0-1.47-.6c-2.91.08-5.84.07-8.67,0q-3.61,0-7.23,0c-2.77,0-5.64,0-8.48,0-1.24,0-2.18.31-2.73,2.15A2.71,2.71,0,0,0,90.62,43.41Zm-3,5h0Z"/><path class="cls-1" d="M63.55,42.87a14.77,14.77,0,0,1-10.37-4.46,15.74,15.74,0,0,1-4.6-12,15.54,15.54,0,0,1,31,1.53A15.45,15.45,0,0,1,74.71,38.7a14.85,14.85,0,0,1-10.55,4.15Zm.51-25.16a9.91,9.91,0,0,0-9.64,9,9.88,9.88,0,0,0,2.89,7.53A8.8,8.8,0,0,0,64,37h.26a8.92,8.92,0,0,0,6.47-2.55,9.57,9.57,0,0,0,3.09-6.64,9.76,9.76,0,0,0-9.26-10.09Z"/></svg>