<svg id="Layer_1" data-name="Layer 1" xmlns="http://www.w3.org/2000/svg" viewBox="0 0 128 128"><defs><style>.cls-1{fill:#196ae5;}</style></defs><title>Artboard 41</title><path class="cls-1" d="M123.3,85.68c.2-.58.41-1.17.6-1.76A63.12,63.12,0,1,0,15.83,105.51c.34.4.68.8,1,1.19q1.2,1.34,2.47,2.61c.45.45.91.88,1.37,1.31q1,.9,2,1.76c.31.27.6.56.93.83,1.55,1.28,3.16,2.46,4.79,3.58l.3.21a61.51,61.51,0,0,0,13.19,6.77l.73.26c.73.26,1.46.52,2.21.75q1.5.47,3,.88l.12,0a63.17,63.17,0,0,0,28.23.8c.31,0,.61-.07.92-.14.55-.12,1.07-.29,1.62-.43.76-.18,1.51-.38,2.25-.6,1.11-.31,2.2-.66,3.27-1,.54-.19,1.09-.37,1.63-.57a61.38,61.38,0,0,0,26.94-19.28A62.33,62.33,0,0,0,123,86.57C123.09,86.28,123.19,86,123.3,85.68ZM70.14,119a3.37,3.37,0,0,1-1.37.41,1.33,1.33,0,0,1-.73-.21,2.11,2.11,0,0,1-.71-1.88q0-7.08,0-14.16V95.63a1.83,1.83,0,0,1,.39-1.46,1.79,1.79,0,0,1,1.33-.49c4.75,0,9.5,0,14.33,0h6.2l-.43,1.24a53.39,53.39,0,0,1-8.92,16.4h0A27.8,27.8,0,0,1,70.14,119Zm-2.83-73.6a2.38,2.38,0,0,1,.54-1.75,2.45,2.45,0,0,1,1.87-.56c7.31,0,13.81,0,19.88,0A2.33,2.33,0,0,1,92.24,45l.32,2.12A103.66,103.66,0,0,1,93.91,59a1.95,1.95,0,0,1-2.24,2.3h-.2c-2.63,0-5.27,0-7.9,0h-6c-2.64,0-5.28,0-7.91,0a2.34,2.34,0,0,1-1.77-.53,2.28,2.28,0,0,1-.53-1.69C67.38,54.39,67.38,49.79,67.31,45.42Zm21.84-10.8.39,1.22h-6c-4.78,0-9.42,0-14.06,0h0a2.17,2.17,0,0,1-1.59-.52,2.2,2.2,0,0,1-.52-1.64q.06-10.75,0-21.49A2.1,2.1,0,0,1,68,10.36a2.22,2.22,0,0,1,2.09.13c7.2,2.94,11.44,8.84,14.34,13.65A49.91,49.91,0,0,1,89.15,34.61ZM86.52,14.32l3,1.53A52.22,52.22,0,0,1,110.15,34.4l.92,1.43h-4.51c-2.7,0-5.29,0-7.88,0h0c-1.44,0-2-.71-2.17-1.3a78.61,78.61,0,0,0-8.2-17.37ZM67.31,70.57a2,2,0,0,1,2.35-2.39c2.67.06,5.35,0,8,0h6.07c2.58,0,5.17,0,7.75,0a2.4,2.4,0,0,1,1.87.56,2.37,2.37,0,0,1,.54,1.78,80.86,80.86,0,0,1-1.78,13.83,2.32,2.32,0,0,1-2.52,2.08h-.05c-5.83-.07-12.14-.07-19.87,0a2,2,0,0,1-2.37-2.35C67.37,79.77,67.38,75.35,67.31,70.57Zm21,41.77a87.83,87.83,0,0,0,5.27-9.84,65.11,65.11,0,0,0,2.7-7,2.24,2.24,0,0,1,2.39-1.82h.07c2.49,0,5,0,7.58,0h4.79l-.92,1.43a52,52,0,0,1-20.67,18.53l-3,1.53Zm20.53-26c-1.11,0-2.22,0-3.34,0-1.35,0-2.76,0-4.11,0a2.09,2.09,0,0,1-1.82-.61,2.18,2.18,0,0,1-.3-1.95,57.75,57.75,0,0,0,1.54-13.28,2.43,2.43,0,0,1,.59-1.8,2.26,2.26,0,0,1,1.69-.59h0c4.91,0,9.35,0,13.88,0a2.13,2.13,0,0,1,1.56.53,2.22,2.22,0,0,1,.45,1.77v0a46.65,46.65,0,0,1-2.38,11.3L116,83.62c-.4,1.35-1.13,2.85-3.28,2.85a5.45,5.45,0,0,1-.68,0A21.15,21.15,0,0,0,108.81,86.37Zm9.67-25.59a2.24,2.24,0,0,1-1.67.57h-.31c-1.5-.08-3.05-.06-4.55,0H108c-1.52,0-3,0-4.57,0a2.72,2.72,0,0,1-2.06-.61,2.68,2.68,0,0,1-.65-2,52.38,52.38,0,0,0-1.51-12.87,2.34,2.34,0,0,1,.25-2.06,2.19,2.19,0,0,1,1.85-.67c2.76.07,5.58.06,8.31,0h3.58a2,2,0,0,1,2.25,1.33c1.62,4.7,3.1,9.33,3.49,14.36A2.43,2.43,0,0,1,118.48,60.78ZM39.64,17.28c-.26.41-.53.82-.79,1.22a30.06,30.06,0,0,0-1.6,2.62l-.86,1.63a49.7,49.7,0,0,0-4.68,10.92A2.59,2.59,0,0,1,29,35.88h-.19c-2.37-.1-4.75-.08-7.26-.06l-3.14,0h-1.7l.92-1.43A50.71,50.71,0,0,1,38.44,16l3-1.46Zm10.08-1.54a25,25,0,0,1,8.17-5.36,2,2,0,0,1,1.89-.08,2,2,0,0,1,.68,1.76q0,10.85,0,21.69a2.1,2.1,0,0,1-.5,1.6,2,2,0,0,1-1.47.5h0c-4.69,0-9.39,0-14.2,0h-6l.41-1.22A48.47,48.47,0,0,1,49.71,15.75ZM17.62,43.13c3,0,6,0,8.94,0a2,2,0,0,1,1.71.64,2.06,2.06,0,0,1,.28,1.81A63.3,63.3,0,0,0,27,58.88a2.43,2.43,0,0,1-.69,1.83,2.54,2.54,0,0,1-1.82.63h-.19c-1.56-.07-3.17-.05-4.72,0h-3.9c-1.55,0-3.1,0-4.65,0a2.23,2.23,0,0,1-1.73-.53,2.08,2.08,0,0,1-.48-1.62c.29-5.16,1.84-9.95,3.54-14.81a1.79,1.79,0,0,1,2-1.25ZM9.31,68.78a2.62,2.62,0,0,1,2.08-.59c1.46.07,3,.05,4.42,0h3.84c1.52,0,3,0,4.56,0a2.82,2.82,0,0,1,2.13.62A2.85,2.85,0,0,1,27,70.94a51.87,51.87,0,0,0,1.51,12.68,2.46,2.46,0,0,1-.27,2.13,2.18,2.18,0,0,1-1.8.69H26.3c-3.06-.1-6.18-.07-9.2,0l-2.47,0A2.14,2.14,0,0,1,12.23,85c-1.42-4.24-3-9.05-3.44-14.17A2.53,2.53,0,0,1,9.31,68.78ZM21.54,93.7c2.45,0,4.83,0,7.22,0a2.47,2.47,0,0,1,2.64,1.87c2,5.26,4.44,11.31,8.28,16.56l1.12,1.53-1.89,0c-4.92-.12-18.77-13-21.1-18.62l-.53-1.28Zm17.09,1.21-.39-1.21H44.3c4.75,0,9.38,0,14,0a2.32,2.32,0,0,1,1.63.52,2.2,2.2,0,0,1,.52,1.63q-.06,10.74,0,21.49a2.1,2.1,0,0,1-.67,1.85,1.34,1.34,0,0,1-.77.23,3.65,3.65,0,0,1-1.32-.35c-7.2-2.94-11.45-8.84-14.34-13.65A49.26,49.26,0,0,1,38.63,94.91Zm21.28-9a2.45,2.45,0,0,1-1.8.56c-7.27-.06-13.84-.05-20.07,0h0a2.27,2.27,0,0,1-2.47-2.07c-.14-.95-.29-1.9-.43-2.84a90,90,0,0,1-1.23-10.77,2.59,2.59,0,0,1,.57-2,2.64,2.64,0,0,1,2-.59c2.56.06,5.12,0,7.68,0h6.08c2.63,0,5.25,0,7.88,0a2,2,0,0,1,2.37,2.37c-.06,4.48-.06,9,0,13.5h0A2.39,2.39,0,0,1,59.91,85.86Zm0-25a2.32,2.32,0,0,1-1.75.5c-2.72,0-5.43,0-8.14,0h-6c-2.63,0-5.27,0-7.9,0H36a2.22,2.22,0,0,1-1.64-.53,2.28,2.28,0,0,1-.54-1.7A71.83,71.83,0,0,1,35,48.65c.19-1.19.38-2.38.55-3.58a2.23,2.23,0,0,1,2.37-2h0c5.88,0,12.19.05,20.47,0a1.79,1.79,0,0,1,2,2.06c0,3.88-.06,9,0,14.1A2.09,2.09,0,0,1,60,60.82Z"/></svg>