<svg id="Layer_1" data-name="Layer 1" xmlns="http://www.w3.org/2000/svg" viewBox="0 0 128 128"><defs><style>.cls-1{fill:#196ae5;}</style></defs><title>Artboard 46 copy 9</title><path class="cls-1" d="M7.08,94a3.88,3.88,0,0,1-3.74-2.74Q2.65,89.44,2,87.65a6.87,6.87,0,0,1,.63-5.83,34.39,34.39,0,0,0,3.23-8.15A32.14,32.14,0,0,0,6,59.31c-.41-2.09-1-4.13-1.55-6.29-.41-1.52-.84-3.1-1.21-4.68a30.92,30.92,0,0,1-.78-5A14,14,0,0,1,7.93,31a8.5,8.5,0,0,1,.73-.52,5.72,5.72,0,0,1,0-.95c.45-4.46,3.91-7.46,8.62-7.46h0a8.58,8.58,0,0,1,5.88,2.86,13.75,13.75,0,0,1,13.15,6.19c.7,1,1.25,1.87,1.73,2.73,1,1.76,1.9,3.58,2.76,5.33.62,1.24,1.23,2.49,1.88,3.71a40.28,40.28,0,0,0,6.47,9.26,30.67,30.67,0,0,0,12.18,7.69,6.89,6.89,0,0,1,4.5,4.49h0c.15.47.34.94.52,1.4s.35.92.51,1.38a4.21,4.21,0,0,1-2.25,5.61,219.32,219.32,0,0,1-21,9.15c-9.49,3.72-17.46,6.6-25.06,9-3.89,1.25-7.13,2.17-10.22,2.89A5.34,5.34,0,0,1,7.08,94ZM17.22,28a2.39,2.39,0,0,0-2.7,2.17s0,.13,0,.23A4.73,4.73,0,0,1,14,33.54,6,6,0,0,1,12,35.32a3.92,3.92,0,0,0-.37.25,8.18,8.18,0,0,0-3.3,7.38A25.2,25.2,0,0,0,9,47c.35,1.49.76,3,1.16,4.49.58,2.16,1.19,4.4,1.64,6.68a37.89,37.89,0,0,1-.21,16.93,40.3,40.3,0,0,1-3.78,9.55c-.37.68-.3.89-.25,1q.38,1.06.78,2.11c2.56-.64,5.27-1.43,8.42-2.44,7.48-2.4,15.33-5.24,24.71-8.91,6.11-2.4,13-5.1,19.51-8.4l-.06-.16c-.22-.56-.43-1.12-.62-1.7h0c-.1-.32-.22-.55-.88-.78a36.9,36.9,0,0,1-14.45-9.15,45.92,45.92,0,0,1-7.42-10.58c-.68-1.28-1.32-2.57-2-3.87-.87-1.76-1.69-3.41-2.61-5-.39-.69-.85-1.41-1.45-2.27A8,8,0,0,0,23,30.87a3.82,3.82,0,0,1-3.63-1.37A3.89,3.89,0,0,0,17.22,28Zm6.65-2.26h0Zm-1.7-.63h0Z"/><path class="cls-1" d="M126,47a80.22,80.22,0,0,0-14-32.35A73,73,0,0,0,101.47,3a3.32,3.32,0,0,0-4.85.35,2.93,2.93,0,0,0,.44,4.45,57,57,0,0,1,6.43,6.56c11.21,13.3,16.76,28.79,17.58,46a79.31,79.31,0,0,1-3.11,26,75.39,75.39,0,0,1-15,28.11,77.2,77.2,0,0,1-6.21,6.44,2.74,2.74,0,0,0-.76,3.19,3.38,3.38,0,0,0,5.52,1.27,77.24,77.24,0,0,0,16-20.77,86.62,86.62,0,0,0,10.09-40.89A86,86,0,0,0,126,47Z"/><path class="cls-1" d="M107.71,63.89A66.11,66.11,0,0,0,106,48.5,58.08,58.08,0,0,0,94.14,24.1a48.33,48.33,0,0,0-7.11-7,3.56,3.56,0,0,0-5.07.53,2.63,2.63,0,0,0,.46,4.07,41.76,41.76,0,0,1,7.05,7.19C97.13,39,100.69,50.51,101.22,63A52.42,52.42,0,0,1,97.63,84.1a51.71,51.71,0,0,1-14.32,21.16c-.29.25-.54.54-.82.81a3.65,3.65,0,0,0,1,5.76,2.71,2.71,0,0,0,2.9-.66,51.43,51.43,0,0,0,14-17A64.81,64.81,0,0,0,107.71,63.89Z"/><path class="cls-1" d="M88.9,63.62c0-1,0-2,0-3s-.18-2-.32-3A41.25,41.25,0,0,0,75.18,32.21a11.49,11.49,0,0,0-2.36-1.87,3.59,3.59,0,0,0-4.56,1.35c-.9,1.38-.6,2.68.92,3.93l.09.08A36.35,36.35,0,0,1,79.09,79a38.07,38.07,0,0,1-10.6,13.77,2.74,2.74,0,0,0-.22,4.43,3.46,3.46,0,0,0,4.95.08C83.6,88.5,88.68,77.17,89,63.64Z"/><path class="cls-1" d="M44.92,86a9.82,9.82,0,0,1-1.13.57A55.53,55.53,0,0,1,34.38,90c-.19,0-.48,0-.31.4a6.09,6.09,0,0,0,4,3.85,6.61,6.61,0,0,0,5-.92,5.06,5.06,0,0,0,2.71-4.78,8,8,0,0,0-.39-2.31C45.32,85.88,45.21,85.85,44.92,86Z"/></svg>